<svg id="svg" version="1.1" xmlns="http://www.w3.org/2000/svg" style="display: block;" viewBox="0 0 512 512"><path d="M0 0 C168.96 0 337.92 0 512 0 C512 168.96 512 337.92 512 512 C343.04 512 174.08 512 0 512 C0 343.04 0 174.08 0 0 Z " transform="translate(0,0)" style="fill: #000000;"/><path d="M0 0 C6 4 6 4 11 9 C11 22.44151429 7.16513625 25.2059143 -1 37 C-1.99 37.33 -2.98 37.66 -4 38 C-4.33 38.66 -4.66 39.32 -5 40 C-2.03 40.66 0.94 41.32 4 42 C6.64 43.32 9.28 44.64 12 46 C14.31 46.99 16.62 47.98 19 49 C36.65030006 63.12024005 48.22348547 77.3409128 52 100 C52 149.15906881 31.36436237 172.63563763 -2 206 C-3.98 209.96 -3.98 209.96 -6 214 C-8.97 218.95 -11.94 223.9 -15 229 C-17.475 233.455 -17.475 233.455 -20 238 C-31 252 -31 252 -36 255 C-39.3 257.31 -42.6 259.62 -46 262 C-61.39937373 269.10740326 -67.16462389 270.59146621 -84 266 C-93 262 -93 262 -98 257 C-104.97192652 249.7355768 -104.97192652 249.7355768 -113 244 C-113.33 243.01 -113.66 242.02 -114 241 C-116.97 238.525 -116.97 238.525 -120 236 C-120.99 232.535 -120.99 232.535 -122 229 C-122.66 229 -123.32 229 -124 229 C-124.33 227.68 -124.66 226.36 -125 225 C-125.66 225 -126.32 225 -127 225 C-128.65 221.37 -130.3 217.74 -132 214 C-136.11791927 205.76416145 -140.49098583 197.16967139 -150 194 C-151.32 192.02 -152.64 190.04 -154 188 C-156.31 185.69 -158.62 183.38 -161 181 C-163.31 177.7 -165.62 174.4 -168 171 C-170.31 168.36 -172.62 165.72 -175 163 C-179 154 -179 154 -179 152 C-179.66 152 -180.32 152 -181 152 C-182.32 148.37 -183.64 144.74 -185 141 C-185.99 138.525 -185.99 138.525 -187 136 C-192.8 107 -192.8 107 -188 95 C-187.34 91.7 -186.68 88.4 -186 85 C-182 77 -182 77 -179 73 C-178.34 71.35 -177.68 69.7 -177 68 C-168 58 -168 58 -164 54 C-163.34 54 -162.68 54 -162 54 C-162 53.34 -162 52.68 -162 52 C-155 48 -155 48 -150 46 C-149.01 45.01 -148.02 44.02 -147 43 C-143.7 42.01 -140.4 41.02 -137 40 C-137.99 38.35 -138.98 36.7 -140 35 C-150.16666667 14.66666667 -150.16666667 14.66666667 -149 10 C-126.8419297 -4.77204687 -115.73670661 -9.21530485 -89 -8 C-86.03 -7.01 -83.06 -6.02 -80 -5 C-80 -4.34 -80 -3.68 -80 -3 C-78.68 -2.67 -77.36 -2.34 -76 -2 C-74.02 0.31 -72.04 2.62 -70 5 C-67.36 3.02 -64.72 1.04 -62 -1 C-56 -5 -56 -5 -54 -5 C-54 -5.66 -54 -6.32 -54 -7 C-32.37452586 -11.63403017 -20.12773435 -8.38655598 0 0 Z " transform="translate(325,120)" style="fill: #ED173E;"/><path d="M0 0 C6 4 6 4 11 9 C11 19.22891857 10.11426643 21.88573357 3 29 C1.68 30.65 0.36 32.3 -1 34 C-10 41 -10 41 -22 46 C-24.31 46.99 -26.62 47.98 -29 49 C-40 49 -40 49 -47 46 C-61.02883412 40.38846635 -76.80949702 41.26983234 -91 46 C-106.68447274 49.92111819 -118.6073619 46.19631905 -133 39 C-141.71734179 31.37232594 -145.94636553 24.80969193 -150 14 C-149 10 -149 10 -134 0 C-115.13578666 -8.70656 -100.77451315 -11.92483772 -80 -5 C-80 -4.34 -80 -3.68 -80 -3 C-78.68 -2.67 -77.36 -2.34 -76 -2 C-74.02 0.31 -72.04 2.62 -70 5 C-67.36 3.02 -64.72 1.04 -62 -1 C-56 -5 -56 -5 -54 -5 C-54 -5.66 -54 -6.32 -54 -7 C-32.37452586 -11.63403017 -20.12773435 -8.38655598 0 0 Z " transform="translate(325,120)" style="fill: #05AD78;"/><path d="M0 0 C-1.32 2.97 -2.64 5.94 -4 9 C-4 23.2638328 -3.23639567 36.33630757 4 49 C4 49.99 4 50.98 4 52 C4.99 52.495 4.99 52.495 6 53 C-9.68447274 56.92111819 -21.6073619 53.19631905 -36 46 C-44.71734179 38.37232594 -48.94636553 31.80969193 -53 21 C-52 17 -52 17 -37 7 C-11.69642857 -4.67857143 -11.69642857 -4.67857143 0 0 Z " transform="translate(228,113)" style="fill: #9ACF6C;"/><path d="M0 0 C7.92305853 7.92305853 8 9.08239008 8 21 C3.21084061 32.97289847 -0.24327748 37.82885165 -11 45 C-16 47 -16 47 -24 47 C-38.72727273 37.18181818 -38.72727273 37.18181818 -42 29 C-42 16 -42 16 -37 7 C-12.77777778 -5.11111111 -12.77777778 -5.11111111 0 0 Z " transform="translate(237,185)" style="fill: #FDC1C4;"/><path d="M0 0 C8.97970411 8.97970411 6 6.21352359 6 23 C2 40 2 40 -3 49 C-10.92 48.34 -18.84 47.68 -27 47 C-25.02 46.505 -25.02 46.505 -23 46 C-23 34.45 -23 22.9 -23 11 C-8.67346939 -1.73469388 -8.67346939 -1.73469388 0 0 Z " transform="translate(278,115)" style="fill: #9FD56C;"/><path d="M0 0 C6 0 6 0 9 2 C9.33 4.31 9.66 6.62 10 9 C10.66 9.66 11.32 10.32 12 11 C12 20.84161816 10.06215536 24.93784464 3 32 C1.35 32 -0.3 32 -2 32 C-5 28 -5 28 -5 22 C-4.01 22.66 -3.02 23.32 -2 24 C-2 24.66 -2 25.32 -2 26 C-0.68 26 0.64 26 2 26 C2 21.38 2 16.76 2 12 C2.66 10.68 3.32 9.36 4 8 C-1.98270484 9.75086356 -1.98270484 9.75086356 -5 18 C-5.66 18 -6.32 18 -7 18 C-7 8 -7 8 0 0 Z " transform="translate(168,193)" style="fill: #F0AFAE;"/><path d="M0 0 C5 2 5 2 7 6 C7 22 7 22 6 23 C0 23 0 23 -8 16 C-9 14 -9 14 -9 7 C-8.67 7 -8.34 7 -8 7 C-7.34 9.64 -6.68 12.28 -6 15 C-4.68 15.99 -3.36 16.98 -2 18 C-2 13.05 -2 8.1 -2 3 C-1.34 2.01 -0.68 1.02 0 0 Z " transform="translate(339,200)" style="fill: #441B28;"/><path d="M0 0 C0.66 0 1.32 0 2 0 C5 7 5 7 5 25 C4 26 4 26 -3 26 C-3.33 19.73 -3.66 13.46 -4 7 C-3.01 6.67 -2.02 6.34 -1 6 C-0.67 4.02 -0.34 2.04 0 0 Z " transform="translate(280,200)" style="fill: #321421;"/><path d="M0 0 C0.66 0 1.32 0 2 0 C2 0.66 2 1.32 2 2 C2.66 2.33 3.32 2.66 4 3 C4 2.34 4 1.68 4 1 C5.65 1 7.3 1 9 1 C8.01 1.495 8.01 1.495 7 2 C10.16839259 11.82492476 10.16839259 11.82492476 16 17 C16 17.66 16 18.32 16 19 C7 18 7 18 3 17 C2.34 17 1.68 17 1 17 C-2 10 -2 10 -2 3 C-1.34 2.01 -0.68 1.02 0 0 Z " transform="translate(202,242)" style="fill: #C51B39;"/><path d="M0 0 C5 2 5 2 10 6 C10.66 9.3 11.32 12.6 12 16 C6 22 6 22 0 22 C-4 17 -4 17 -4 14 C-2.68 14.33 -1.36 14.66 0 15 C4.455 15.99 4.455 15.99 9 17 C9 16.34 9 15.68 9 15 C7.68 14.34 6.36 13.68 5 13 C1 6 1 6 0 0 Z " transform="translate(209,244)" style="fill: #DD4758;"/><path d="M0 0 C2.13437475 4.26874949 4.06166071 8.63873659 6 13 C8.97949852 14.63379316 8.97949852 14.63379316 17 15 C16 22 16 22 15 23 C12.69 23 10.38 23 8 23 C-0.99049226 12.7251517 0 13.73955629 0 0 Z " transform="translate(176,278)" style="fill: #EBB5B1;"/><path d="M0 0 C0.99 0.33 1.98 0.66 3 1 C3 15 3 15 0 18 C-10 18 -10 18 -12 17 C-12 16.34 -12 15.68 -12 15 C-10.02 14.34 -8.04 13.68 -6 13 C-0.64644661 6.58925565 -0.64644661 6.58925565 0 0 Z " transform="translate(301,243)" style="fill: #431726;"/><path d="M0 0 C9.0767501 2.26918752 14.39477235 5.39477235 21 12 C21 21 21 21 18 27 C17.34 27.33 16.68 27.66 16 28 C16.99 24.04 17.98 20.08 19 16 C18.01 16.33 17.02 16.66 16 17 C15.67 15.02 15.34 13.04 15 11 C14.01 11.33 13.02 11.66 12 12 C11.67 10.68 11.34 9.36 11 8 C9.68 7.67 8.36 7.34 7 7 C7 6.34 7 5.68 7 5 C5.68 5 4.36 5 3 5 C0 2 0 2 0 0 Z " transform="translate(315,117)" style="fill: #2D6E54;"/><path d="M0 0 C4.29 0 8.58 0 13 0 C13 0.33 13 0.66 13 1 C10.36 1.33 7.72 1.66 5 2 C5 7.28 5 12.56 5 18 C4 19 4 19 -2 19 C-2 10 -2 10 0 0 Z " transform="translate(279,307)" style="fill: #361720;"/><path d="M0 0 C0.99 0.33 1.98 0.66 3 1 C3 11 3 11 0 17 C-6 17 -6 17 -9 14 C-8.01 14 -7.02 14 -6 14 C-6 13.01 -6 12.02 -6 11 C-5.34 11 -4.68 11 -4 11 C-3.67 8.69 -3.34 6.38 -3 4 C-2.01 2.68 -1.02 1.36 0 0 Z " transform="translate(326,277)" style="fill: #241820;"/><path d="M0 0 C2.31 0 4.62 0 7 0 C7.66 1.65 8.32 3.3 9 5 C10.32 7.31 11.64 9.62 13 12 C13 13.65 13 15.3 13 17 C10.36 17 7.72 17 5 17 C4 15 4 15 4 6 C3.67 4.68 3.34 3.36 3 2 C2.01 1.67 1.02 1.34 0 1 C0 0.67 0 0.34 0 0 Z " transform="translate(179,276)" style="fill: #481021;"/><path d="M0 0 C0.66 0 1.32 0 2 0 C3 2 3 2 3 10 C1.68 12.64 0.36 15.28 -1 18 C-4.3 18 -7.6 18 -11 18 C-11.33 17.34 -11.66 16.68 -12 16 C-10.02 15.01 -8.04 14.02 -6 13 C-1.08245 5.0639976 -1.08245 5.0639976 0 0 Z " transform="translate(300,338)" style="fill: #441821;"/><path d="M0 0 C0.495 0.99 0.495 0.99 1 2 C-4.28 0.68 -9.56 -0.64 -15 -2 C-18.96 -2.33 -22.92 -2.66 -27 -3 C-27 -2.34 -27 -1.68 -27 -1 C-28.65 0.32 -30.3 1.64 -32 3 C-33.32 2.01 -34.64 1.02 -36 0 C-37.98 0 -39.96 0 -42 0 C-42 -0.66 -42 -1.32 -42 -2 C-25.17176074 -5.60605127 -16.28786828 -5.81709582 0 0 Z " transform="translate(313,115)" style="fill: #36785C;"/><path d="M0 0 C1.32 0 2.64 0 4 0 C3.67 1.32 3.34 2.64 3 4 C2.67 8.62 2.34 13.24 2 18 C0.68 18 -0.64 18 -2 18 C-4 13 -4 13 -4 5 C-2.68 3.35 -1.36 1.7 0 0 Z " transform="translate(168,201)" style="fill: #46161F;"/><path d="M0 0 C0.66 0 1.32 0 2 0 C2 13 2 13 -3 18 C-5.97 18 -8.94 18 -12 18 C-12.33 17.34 -12.66 16.68 -13 16 C-10.69 14.68 -8.38 13.36 -6 12 C-2.62117617 6.16664525 -2.62117617 6.16664525 0 0 Z " transform="translate(365,239)" style="fill: #3A1A1D;"/><path d="M0 0 C0.66 0 1.32 0 2 0 C6 11 6 11 5 15 C-1 15 -1 15 -2 14 C-2 5 -2 5 0 0 Z " transform="translate(253,279)" style="fill: #391925;"/><path d="M0 0 C1.65 0.33 3.3 0.66 5 1 C8 7 8 7 7 12 C5.35 12 3.7 12 2 12 C-1 8 -1 8 -1 1 C-0.67 0.67 -0.34 0.34 0 0 Z " transform="translate(222,310)" style="fill: #F34835;"/><path d="M0 0 C0.66 0 1.32 0 2 0 C8 10 8 10 8 17 C6.68 19.64 5.36 22.28 4 25 C3.67 25 3.34 25 3 25 C2.67 19.06 2.34 13.12 2 7 C1.34 4.69 0.68 2.38 0 0 Z " transform="translate(282,200)" style="fill: #D58F76;"/><path d="M0 0 C0.99 3.3 1.98 6.6 3 10 C7.30161619 15.7395857 7.30161619 15.7395857 11 18 C11 18.66 11 19.32 11 20 C3 18 3 18 -1 15 C-2 9 -2 9 -2 1 C-1 0 -1 0 0 0 Z " transform="translate(146,238)" style="fill: #4A1922;"/><path d="M0 0 C0.99 0 1.98 0 3 0 C3.99 3.3 4.98 6.6 6 10 C7.65 11.98 9.3 13.96 11 16 C11 16.33 11 16.66 11 17 C4 16 4 16 1 12 C0 9 0 9 0 0 Z " transform="translate(212,337)" style="fill: #4C1520;"/><path d="M0 0 C3 3 3 3 7 11 C8.32 11.99 9.64 12.98 11 14 C11 14.66 11 15.32 11 16 C2 15 2 15 0 13 C0 8.71 0 4.42 0 0 Z " transform="translate(207,245)" style="fill: #33060F;"/><path d="M0 0 C0.66 0.33 1.32 0.66 2 1 C-6.38772644 9.38772644 -16.01625623 10 -27 10 C-38 7 -38 7 -41 4 C-35 5 -35 5 -30 7 C-13.94629383 7.90508402 -13.94629383 7.90508402 0 0 Z " transform="translate(279,379)" style="fill: #683544;"/><path d="M0 0 C1 4 1 4 -1 9 C-1.23012208 32.22333602 -1.23012208 32.22333602 6 54 C5.67 55.32 5.34 56.64 5 58 C0 47 0 47 -1 40 C-1.33 39.67 -1.66 39.34 -2 39 C-3.91478526 25.59650321 -4.78756311 12.76683497 0 0 Z " transform="translate(137,211)" style="fill: #422124;"/><path d="M0 0 C2 1 2 1 6 11 C5.67 12.32 5.34 13.64 5 15 C0 14 0 14 -2 12 C-2 4 -2 4 0 0 Z " transform="translate(252,356)" style="fill: #362228;"/><path d="M0 0 C1.65 1.32 3.3 2.64 5 4 C6.65 4.99 8.3 5.98 10 7 C9 11 9 11 8 12 C3 12 3 12 0 9 C0 6.03 0 3.06 0 0 Z " transform="translate(144,251)" style="fill: #F7B7AC;"/><path d="M0 0 C0 3 0 3 -5 10 C-5.99 10.33 -6.98 10.66 -8 11 C-8.33 11.66 -8.66 12.32 -9 13 C-4.545 13.99 -4.545 13.99 0 15 C1.32 15.66 2.64 16.32 4 17 C3.34 17.33 2.68 17.66 2 18 C0.35 17.34 -1.3 16.68 -3 16 C-7.95 16 -12.9 16 -18 16 C-16.68 15.01 -15.36 14.02 -14 13 C-4.5 6 -4.5 6 0 0 Z " transform="translate(329,147)" style="fill: #65544F;"/><path d="M0 0 C2.97 0.33 5.94 0.66 9 1 C9.99 0.67 10.98 0.34 12 0 C12 1.65 12 3.3 12 5 C9 7 9 7 2 7 C0 3 0 3 0 0 Z " transform="translate(249,292)" style="fill: #ECB5A3;"/><path d="M0 0 C1.32 0.66 2.64 1.32 4 2 C4 9 4 9 1 13 C0.34 13 -0.32 13 -1 13 C-2 11 -2 11 -2 3 C-1.34 2.01 -0.68 1.02 0 0 Z " transform="translate(220,201)" style="fill: #483434;"/><path d="M0 0 C3.3 1.98 6.6 3.96 10 6 C9.67 8.64 9.34 11.28 9 14 C8.01 14.495 8.01 14.495 7 15 C1 4 1 4 0 0 Z " transform="translate(186,277)" style="fill: #E5675D;"/><path d="M0 0 C4.39845487 1.09961372 8.69883737 2.56627912 13 4 C12.01 5.32 11.02 6.64 10 8 C8.02 8 6.04 8 4 8 C0 3 0 3 0 0 Z " transform="translate(205,258)" style="fill: #EBB0A6;"/><path d="M0 0 C5.94 0.99 5.94 0.99 12 2 C12 3.65 12 5.3 12 7 C6 7 6 7 1 3 C0.67 2.01 0.34 1.02 0 0 Z " transform="translate(222,324)" style="fill: #EC9B84;"/><path d="M0 0 C4 3 8 6 12 9 C-2 12 -2 12 -7 13 C-6.67 12.34 -6.34 11.68 -6 11 C-1.05 9.515 -1.05 9.515 4 8 C3.01 6.35 2.02 4.7 1 3 C0.67 2.01 0.34 1.02 0 0 Z " transform="translate(184,152)" style="fill: #673A41;"/><path d="M0 0 C3.63 0 7.26 0 11 0 C9 4 9 4 7 5 C5.02 5 3.04 5 1 5 C0.67 3.35 0.34 1.7 0 0 Z " transform="translate(276,326)" style="fill: #E8B59B;"/><path d="M0 0 C-9 7 -9 7 -12 9 C-13.98 6.69 -15.96 4.38 -18 2 C-13.05 2.99 -13.05 2.99 -8 4 C-8 3.34 -8 2.68 -8 2 C-7.01 2 -6.02 2 -5 2 C-5 1.34 -5 0.68 -5 0 C-2 -1 -2 -1 0 0 Z " transform="translate(267,117)" style="fill: #31392F;"/><path d="M0 0 C8 2 8 2 10 3 C9.67 3.99 9.34 4.98 9 6 C10.32 6.33 11.64 6.66 13 7 C13.33 7.99 13.66 8.98 14 10 C6.55619128 8.75936521 4.42153663 5.89538217 0 0 Z " transform="translate(224,373)" style="fill: #79323F;"/><path d="M0 0 C-1 4 -1 4 -4 6 C-5.32 5.67 -6.64 5.34 -8 5 C-8.33 4.01 -8.66 3.02 -9 2 C-3 0 -3 0 0 0 Z " transform="translate(304,260)" style="fill: #EAAE97;"/><path d="M0 0 C0.33 0.66 0.66 1.32 1 2 C0.01 3.98 -0.98 5.96 -2 8 C-2.33 11.96 -2.66 15.92 -3 20 C-3.33 20 -3.66 20 -4 20 C-4 6 -4 6 0 0 Z " transform="translate(198,193)" style="fill: #F96488;"/></svg>