<svg id="svg" version="1.1" xmlns="http://www.w3.org/2000/svg" style="display: block;" viewBox="0 0 512 512"><path d="M0 0 C168.96 0 337.92 0 512 0 C512 168.96 512 337.92 512 512 C343.04 512 174.08 512 0 512 C0 343.04 0 174.08 0 0 Z " transform="translate(0,0)" style="fill: none;"/><path d="M0 0 C0.58700684 0.18755859 1.17401367 0.37511719 1.77880859 0.56835938 C8.33188936 2.60521439 14.8982608 4.15638586 21.625 5.5 C22.57117188 5.69980469 23.51734375 5.89960938 24.4921875 6.10546875 C27.98422999 6.80835423 31.48486497 7.42659303 35 8 C36.19601837 8.19642593 36.19601837 8.19642593 37.41619873 8.39682007 C54.68769344 11.12922059 71.82773666 11.43501063 89.26397705 11.3225708 C92.07138112 11.30917786 94.87862505 11.31439868 97.6860466 11.31945992 C113.38222751 11.34047884 128.93759106 10.85092978 144.58056641 9.42651367 C149.40881596 9.00034745 154.15456368 8.92144397 159 9 C159.21001621 15.81385931 159.03911835 22.40034104 158.08203125 29.15625 C156.64098838 39.95132568 156.06777949 50.80140849 155.39819336 61.66601562 C154.44607966 76.95592403 153.0937421 92.19477131 151.62690449 107.44277477 C150.82191785 115.82299591 150.05205166 124.20642198 149.28125 132.58984375 C149.13401883 134.1886117 148.98675613 135.78737674 148.83946228 137.38613892 C148.54205217 140.61475045 148.24482169 143.84337844 147.94775391 147.07202148 C147.57504981 151.12257404 147.20193659 155.17308879 146.82870483 159.22359276 C144.87012952 180.48097921 142.92721744 201.73974728 141 223 C128.17833873 225.76496366 115.75287354 226.30997608 102.6875 226.3125 C101.87206726 226.31572266 101.05663452 226.31894531 100.2164917 226.32226562 C77.00543221 226.3781468 53.17052254 223.09643286 33.76953125 209.296875 C28.82082815 202.87339283 28.30445216 193.55478513 27.25 185.75 C26.91270386 183.37612478 26.57405144 181.00244205 26.234375 178.62890625 C26.14188477 177.97674637 26.04939453 177.32458649 25.95410156 176.65266418 C24.67598586 167.66017906 23.31639501 158.67984375 21.95544434 149.69958496 C21.51314822 146.77445588 21.0752773 143.84868895 20.63769531 140.92285156 C19.20733744 131.43269766 17.66479365 121.97890657 15.91015625 112.54296875 C14.3082539 103.92505696 13.00726703 95.32707497 11.9375 86.625 C10.43664458 74.86141651 10.43664458 74.86141651 8.375 63.1875 C7.1880234 57.27814339 6.41700617 51.41429692 5.76904297 45.42919922 C5.20255669 40.34943418 4.41839171 35.34002562 3.5 30.3125 C-0.36441927 9.11048165 -0.36441927 9.11048165 0 0 Z " transform="translate(153,185)" style="fill: #FBFAFB;"/><path d="M0 0 C0.8600766 -0.00090637 1.7201532 -0.00181274 2.60629272 -0.00274658 C26.31267951 0.00008975 26.31267951 0.00008975 30.6875 2.1875 C32.62578798 2.42050618 34.57000136 2.60499861 36.515625 2.765625 C61.15403398 4.97307381 61.15403398 4.97307381 72.6875 10.1875 C74.52002131 10.85639552 76.35330444 11.52320923 78.1875 12.1875 C84.93477601 14.95731774 88.72904985 18.38065941 91.6875 25.1875 C92.30592706 27.73256522 92.84578235 30.29779538 93.3125 32.875 C94.25505787 38.08897101 94.25505787 38.08897101 95.6875 43.1875 C97.68766466 44.39632096 97.68766466 44.39632096 99.6875 45.1875 C99.6875 45.8475 99.6875 46.5075 99.6875 47.1875 C100.3475 47.1875 101.0075 47.1875 101.6875 47.1875 C110.55268316 65.41287656 110.55268316 65.41287656 107.6875 74.1875 C105.01546211 76.93812724 102.61004441 78.22139208 99.08984375 79.76171875 C96.89800577 81.01382777 95.89192044 81.66365533 94.96582031 84.03686523 C94.61439033 86.3083856 94.45662743 88.51554196 94.375 90.8125 C94.27960477 92.34666443 94.17930843 93.88053163 94.07421875 95.4140625 C94.02305908 96.20135742 93.97189941 96.98865234 93.91918945 97.79980469 C93.68723922 100.19018746 93.27442212 102.45682591 92.7734375 104.8046875 C91.15913832 112.38225055 90.3325075 120.08787701 89.36206055 127.76855469 C89.10757891 129.77315982 88.84878088 131.77721552 88.58984375 133.78125 C88.44023193 134.96396484 88.29062012 136.14667969 88.13647461 137.36523438 C87.6875 140.1875 87.6875 140.1875 86.6875 142.1875 C86.52834321 143.72601559 86.41043375 145.26887761 86.3125 146.8125 C85.9322069 151.41761172 85.21949181 155.84476485 84.3125 160.375 C82.97633556 167.09495329 82.0581175 173.82251972 81.25 180.625 C79.65088596 194.02050787 77.50746976 207.31143068 75.28125 220.61523438 C73.17755638 233.20452585 71.55913917 245.84015517 70.04492188 258.51196289 C69.92100571 259.53538536 69.92100571 259.53538536 69.79458618 260.57948303 C69.56752963 262.45634618 69.34396279 264.33363053 69.12060547 266.2109375 C68.6875 269.1875 68.6875 269.1875 67.6875 272.1875 C67.0275 272.1875 66.3675 272.1875 65.6875 272.1875 C65.71070313 272.744375 65.73390625 273.30125 65.7578125 273.875 C65.9105271 280.3326459 65.9583712 286.49057417 61.60546875 291.66015625 C58.18401989 294.62357983 54.75397633 296.45055133 50.6875 298.375 C49.98882812 298.71724609 49.29015625 299.05949219 48.5703125 299.41210938 C36.25253408 305.3966904 23.48301452 308.72850057 9.6875 308.1875 C9.6875 307.8575 9.6875 307.5275 9.6875 307.1875 C11.54031834 306.8467518 13.39484395 306.51528217 15.25 306.1875 C16.28253906 306.001875 17.31507813 305.81625 18.37890625 305.625 C21.85320241 305.16558894 25.18696009 305.1584348 28.6875 305.1875 C28.72053223 304.12474854 28.75356445 303.06199707 28.78759766 301.96704102 C29.45699271 283.8464361 31.19850704 265.80979406 32.82623291 247.75622559 C33.1392639 244.27010677 33.44723213 240.78354865 33.75519371 237.29697895 C35.2537435 220.34929342 36.82664016 203.41862486 38.68743896 186.50634766 C39.65767964 177.64230586 40.46532522 168.77467227 41.140625 159.88354492 C41.31531858 157.5879621 41.49711399 155.29301525 41.6796875 152.99804688 C42.29229759 145.1740408 42.7966266 137.35445573 43.17578125 129.515625 C43.58619823 121.13722579 44.33232366 112.8381214 45.25 104.5 C45.38857422 103.20255859 45.52714844 101.90511719 45.66992188 100.56835938 C46.00459581 97.44088917 46.34377729 94.31398625 46.6875 91.1875 C45.96763916 91.27837891 45.24777832 91.36925781 44.50610352 91.46289062 C23.35682468 93.98817765 2.2166891 94.55089996 -19.06096268 94.61593628 C-21.15253946 94.62485099 -23.24391174 94.64160906 -25.3354187 94.66064453 C-52.97804438 94.89149597 -86.9905999 94.71517689 -112.3125 82.1875 C-112.168125 83.033125 -112.02375 83.87875 -111.875 84.75 C-110.85596733 90.97742186 -110.0650665 96.87794585 -110.3125 103.1875 C-112.58510341 99.41300216 -113.18828205 95.33610037 -113.9375 91.0625 C-114.0715625 90.33417969 -114.205625 89.60585937 -114.34375 88.85546875 C-115.3125 83.50757334 -115.3125 83.50757334 -115.3125 81.1875 C-116.22 80.960625 -117.1275 80.73375 -118.0625 80.5 C-121.92745869 78.9391513 -123.26582572 77.80853911 -125.3125 74.1875 C-125.61547769 71.25871568 -125.61629213 69.0637255 -125.3125 66.1875 C-125.25320312 65.33800781 -125.19390625 64.48851562 -125.1328125 63.61328125 C-124.18066818 55.47360844 -120.39074889 50.43223774 -115.3125 44.1875 C-111.7852973 39.66544525 -111.05849846 36.88013214 -110.6328125 31.35546875 C-109.79528339 25.68682661 -105.3408968 21.92043213 -101.12890625 18.4453125 C-98.67428676 16.74555449 -96.19838219 15.89137371 -93.3125 15.1875 C-93.3125 14.5275 -93.3125 13.8675 -93.3125 13.1875 C-91.89853098 12.67992138 -90.48118271 12.18175075 -89.0625 11.6875 C-88.27359375 11.4090625 -87.4846875 11.130625 -86.671875 10.84375 C-84.3125 10.1875 -84.3125 10.1875 -80.3125 10.1875 C-80.3125 9.5275 -80.3125 8.8675 -80.3125 8.1875 C-77.70918031 7.55879677 -75.1049214 6.93450494 -72.5 6.3125 C-71.42202148 6.05146484 -71.42202148 6.05146484 -70.32226562 5.78515625 C-59.78881188 3.27940073 -49.43637682 1.75153319 -38.625 1.0625 C-37.31442627 0.97830811 -36.00385254 0.89411621 -34.65356445 0.80737305 C-23.10636768 0.12177654 -11.5651855 -0.00079794 0 0 Z " transform="translate(265.3125,102.8125)" style="fill: #212021;"/><path d="M0 0 C-3.8137937 54.62758741 -3.8137937 54.62758741 -7 61 C-7.15915679 62.53851559 -7.27706625 64.08137761 -7.375 65.625 C-7.7552931 70.23011172 -8.46800819 74.65726485 -9.375 79.1875 C-10.71116444 85.90745329 -11.6293825 92.63501972 -12.4375 99.4375 C-14.03661404 112.83300787 -16.18003024 126.12393068 -18.40625 139.42773438 C-20.50994362 152.01702585 -22.12836083 164.65265517 -23.64257812 177.32446289 C-23.76649429 178.34788536 -23.76649429 178.34788536 -23.89291382 179.39198303 C-24.11997037 181.26884618 -24.34353721 183.14613053 -24.56689453 185.0234375 C-25 188 -25 188 -26 191 C-26.66 191 -27.32 191 -28 191 C-27.97679687 191.556875 -27.95359375 192.11375 -27.9296875 192.6875 C-27.7769729 199.1451459 -27.7291288 205.30307417 -32.08203125 210.47265625 C-35.50348011 213.43607983 -38.93352367 215.26305133 -43 217.1875 C-43.69867188 217.52974609 -44.39734375 217.87199219 -45.1171875 218.22460938 C-57.43496592 224.2091904 -70.20448548 227.54100057 -84 227 C-84 226.67 -84 226.34 -84 226 C-82.14718166 225.6592518 -80.29265605 225.32778217 -78.4375 225 C-77.40496094 224.814375 -76.37242187 224.62875 -75.30859375 224.4375 C-71.83429759 223.97808894 -68.50053991 223.9709348 -65 224 C-64.95045166 222.4058728 -64.95045166 222.4058728 -64.89990234 220.77954102 C-64.23050729 202.6589361 -62.48899296 184.62229406 -60.86126709 166.56872559 C-60.5482361 163.08260677 -60.24026787 159.59604865 -59.93230629 156.10947895 C-58.4337565 139.16179342 -56.86085984 122.23112486 -55.00006104 105.31884766 C-54.02982036 96.45480586 -53.22217478 87.58717227 -52.546875 78.69604492 C-52.37218142 76.4004621 -52.19038601 74.10551525 -52.0078125 71.81054688 C-51.39520241 63.9865408 -50.8908734 56.16695573 -50.51171875 48.328125 C-50.10130177 39.94972579 -49.35517634 31.6506214 -48.4375 23.3125 C-48.22963867 21.36633789 -48.22963867 21.36633789 -48.01757812 19.38085938 C-47.68290419 16.25338917 -47.34372271 13.12648625 -47 10 C-47.99 9.67 -48.98 9.34 -50 9 C-48.87694458 8.85751831 -48.87694458 8.85751831 -47.73120117 8.7121582 C-33.72077992 6.90439652 -20.0427341 4.90991504 -6.46484375 0.953125 C-3 0 -3 0 0 0 Z " transform="translate(359,184)" style="fill: #520E19;"/><path d="M0 0 C1.98 0 3.96 0 6 0 C6.33165588 8.862582 5.3213258 17.2580141 4 26 C4.9178125 25.71125 5.835625 25.4225 6.78125 25.125 C22.70287134 20.30837506 22.70287134 20.30837506 30 23.5625 C37.44390949 27.73870906 43.09039958 32.85984622 46 41 C46.75 43.8125 46.75 43.8125 47 47 C47.06316406 47.79019531 47.12632812 48.58039063 47.19140625 49.39453125 C47.78485346 62.77580863 42.19971802 73.50228043 33.375 83.1875 C24.97668167 91.24795495 14.22118169 94.93830405 2.8125 95.375 C-10.83411556 95.09102418 -21.83857149 89.68374475 -31.25 79.875 C-39.98716343 68.84528639 -42.88085271 56.82772558 -42 43 C-40.81985485 35.89747506 -37.4129965 30.6860242 -32 26 C-25.83387708 21.69014657 -20.56468511 18.7798895 -13 20 C-8.65647641 21.53551734 -4.83160479 23.44559681 -1 26 C-0.67 17.42 -0.34 8.84 0 0 Z " transform="translate(254,248)" style="fill: #CE080B;"/><path d="M0 0 C0.05607422 1.01707031 0.05607422 1.01707031 0.11328125 2.0546875 C0.46425586 7.02338692 1.02906837 11.56030858 2.5625 16.3125 C4.73602669 23.1358599 4.73602669 23.1358599 4 27 C1.9375 29.125 1.9375 29.125 -1 31 C-1.92039062 31.63292969 -2.84078125 32.26585937 -3.7890625 32.91796875 C-9.45498628 36.13905349 -15.99026281 36.95005144 -22.3125 38.1875 C-24.85068711 38.69971302 -27.38847081 39.21393054 -29.92578125 39.73046875 C-31.04380127 39.95114014 -32.16182129 40.17181152 -33.3137207 40.39916992 C-35.95335074 40.87617504 -35.95335074 40.87617504 -38 42 C-56.8445137 45.28667847 -75.95164889 45.49982284 -95.01726913 45.38672256 C-97.15992125 45.37480578 -99.30254448 45.36783976 -101.44522095 45.36190796 C-178.32713006 45.11524663 -178.32713006 45.11524663 -201 30 C-202.0115966 22.90890622 -201.59850838 16.22818758 -198 10 C-197.34 9.34 -196.68 8.68 -196 8 C-195.23042969 8.65355469 -195.23042969 8.65355469 -194.4453125 9.3203125 C-188.94913223 13.59511938 -183.48691903 16.19547255 -176.9375 18.375 C-176.1945166 18.62523926 -175.4515332 18.87547852 -174.68603516 19.13330078 C-170.16867206 20.56229298 -165.87960341 21.32618119 -161.1652832 21.73779297 C-159 22 -159 22 -155.328125 23.046875 C-149.26591413 24.66306402 -142.9757448 24.28850976 -136.75 24.25 C-135.48414063 24.25773437 -134.21828125 24.26546875 -132.9140625 24.2734375 C-131.69976562 24.27085937 -130.48546875 24.26828125 -129.234375 24.265625 C-128.13319336 24.26336914 -127.03201172 24.26111328 -125.89746094 24.25878906 C-123.07331102 24.19243066 -123.07331102 24.19243066 -121.09590149 23.0065155 C-118.75234511 21.88106861 -117.15467181 21.71173723 -114.56811523 21.63696289 C-113.69362732 21.6066246 -112.8191394 21.57628632 -111.91815186 21.54502869 C-110.97449768 21.52114578 -110.03084351 21.49726288 -109.05859375 21.47265625 C-107.02237182 21.40403788 -104.98615791 21.335181 -102.94995117 21.26611328 C-101.35357315 21.21683685 -101.35357315 21.21683685 -99.72494507 21.16656494 C-67.29442835 20.13996837 -26.99005438 0 0 0 Z " transform="translate(356,132)" style="fill: #100F10;"/><path d="M0 0 C1.98 0.99 1.98 0.99 4 2 C4 2.66 4 3.32 4 4 C4.66 4 5.32 4 6 4 C14.86518316 22.22537656 14.86518316 22.22537656 12 31 C9.32364888 33.75506733 6.93832204 35.02651951 3.40234375 36.546875 C1.13463785 37.83815793 0.18812078 38.48852276 -0.72167969 40.9621582 C-1.06809911 43.34160732 -1.23042841 45.65952029 -1.3125 48.0625 C-1.40577287 49.67880381 -1.50576365 51.29473748 -1.61328125 52.91015625 C-1.64204346 53.62308838 -1.67080566 54.33602051 -1.70043945 55.07055664 C-2 57 -2 57 -4 60 C-3.86105852 56.89548451 -3.712657 53.79149165 -3.5625 50.6875 C-3.52318359 49.80642578 -3.48386719 48.92535156 -3.44335938 48.01757812 C-3.40146484 47.17001953 -3.35957031 46.32246094 -3.31640625 45.44921875 C-3.27974854 44.66893311 -3.24309082 43.88864746 -3.20532227 43.0847168 C-3 41 -3 41 -2 38 C-2.83660156 38.25394531 -3.67320312 38.50789063 -4.53515625 38.76953125 C-17.46439064 42.59246102 -30.49903025 44.998248 -43.8125 47.0625 C-45.32880005 47.30613281 -45.32880005 47.30613281 -46.87573242 47.5546875 C-68.49738296 50.79472468 -90.31308076 51.3772856 -112.1394043 51.37060547 C-114.91636226 51.37044305 -117.69265946 51.38436374 -120.46948242 51.41162109 C-148.58375332 51.68292047 -182.37258757 51.6788251 -208 39 C-208 41.31 -208 43.62 -208 46 C-208.33 46 -208.66 46 -209 46 C-209 43.03 -209 40.06 -209 37 C-209.66 37 -210.32 37 -211 37 C-211 36.34 -211 35.68 -211 35 C-211.66 35 -212.32 35 -213 35 C-213 34.34 -213 33.68 -213 33 C-214.98 32.67 -216.96 32.34 -219 32 C-220.32854177 26.0819503 -219.66464729 23.22270869 -217 18 C-213.72626508 18.58231294 -212.15473244 19.55011743 -209.8125 21.875 C-206.45677956 24.9045705 -203.3442055 26.17885305 -199.015625 27.359375 C-197 28 -197 28 -194 30 C-192.07951079 30.61424092 -192.07951079 30.61424092 -189.98046875 31.03515625 C-189.20509766 31.20466797 -188.42972656 31.37417969 -187.63085938 31.54882812 C-186.82455078 31.71833984 -186.01824219 31.88785156 -185.1875 32.0625 C-183.99543945 32.32256836 -183.99543945 32.32256836 -182.77929688 32.58789062 C-163.41989553 36.76721548 -144.16660496 37.23800941 -124.4375 37.25 C-123.28815979 37.25100708 -122.13881958 37.25201416 -120.95465088 37.25305176 C-55.23592594 38.64702036 -55.23592594 38.64702036 4 16 C5.9451 13.08235 6.45276317 11.37462715 7 8 C6.34 8 5.68 8 5 8 C3.7109375 6.25 3.7109375 6.25 2.375 4 C1.92898438 3.2575 1.48296875 2.515 1.0234375 1.75 C0.51683594 0.88375 0.51683594 0.88375 0 0 Z " transform="translate(361,146)" style="fill: #1D1B1D;"/><path d="M0 0 C0.90468018 0.13897705 1.80936035 0.2779541 2.74145508 0.42114258 C3.4867749 0.61216553 4.23209473 0.80318848 5 1 C5.70272252 2.31468752 6.3701719 3.64887499 7 5 C8.86827053 5.87588962 8.86827053 5.87588962 11.0625 6.3125 C17.50317542 8.18842488 22.31327106 12.31327106 27 17 C27.125 19.625 27.125 19.625 27 22 C26.34 22.33 25.68 22.66 25 23 C24.566875 21.4221875 24.566875 21.4221875 24.125 19.8125 C22.19400472 15.35773879 19.16533876 14.01793409 14.85546875 12.12109375 C13.91316406 11.75113281 12.97085938 11.38117188 12 11 C11.08863281 10.64035156 10.17726563 10.28070313 9.23828125 9.91015625 C1.02013501 6.93906654 -7.39259917 5.33039339 -16 4 C-16.85625977 3.86174805 -17.71251953 3.72349609 -18.59472656 3.58105469 C-52.99917177 -1.81787171 -102.47773606 -4.84733821 -133.5 13.9375 C-136.60874024 16.5022107 -138.76565844 18.614634 -141 22 C-141.15736452 25.8554308 -140.35639495 27.50104707 -138.125 30.625 C-131.26122156 35.84147161 -122.62897285 37.47695966 -114.3359375 39.2890625 C-113.56507813 39.52367187 -112.79421875 39.75828125 -112 40 C-111.67 40.66 -111.34 41.32 -111 42 C-108.35931095 42.42534589 -105.78294787 42.75038403 -103.125 43 C-95.40035861 43.73309426 -95.40035861 43.73309426 -92 46 C-94.42891182 47.21445591 -96.00719443 47.12924198 -98.71875 47.1328125 C-99.65074219 47.13410156 -100.58273438 47.13539063 -101.54296875 47.13671875 C-102.51878906 47.13285156 -103.49460938 47.12898438 -104.5 47.125 C-105.96373047 47.13080078 -105.96373047 47.13080078 -107.45703125 47.13671875 C-108.85501953 47.13478516 -108.85501953 47.13478516 -110.28125 47.1328125 C-111.13783203 47.13168457 -111.99441406 47.13055664 -112.87695312 47.12939453 C-115 47 -115 47 -117 46 C-118.72607444 45.72947385 -120.45605017 45.48366394 -122.1875 45.25 C-135.65588899 43.02141765 -147.18917945 38.81082055 -157 29 C-156.48332481 22.79989773 -153.16046627 17.46254633 -149 13 C-146.45994948 11.61245847 -144.09658241 10.45941631 -141.4375 9.375 C-140.72585693 9.07505127 -140.01421387 8.77510254 -139.28100586 8.46606445 C-133.63470939 6.13887039 -127.96483323 4.32870484 -122 3 C-121.2575 2.83113281 -120.515 2.66226563 -119.75 2.48828125 C-118.31987697 2.16905736 -116.88743238 1.86001838 -115.45263672 1.5625 C-113.00835186 1.033655 -113.00835186 1.033655 -110.69189453 0.2878418 C-101.32594939 -2.48495943 -91.92273663 -2.72645681 -82.22973633 -3.08081055 C-79.33545219 -3.18666059 -76.44229285 -3.30942338 -73.54882812 -3.43554688 C-48.73718788 -4.47595033 -24.57519978 -3.80532076 0 0 Z " transform="translate(314,109)" style="fill: #363637;"/><path d="M0 0 C1.485 0.99 1.485 0.99 3 2 C3.66 2 4.32 2 5 2 C5 2.66 5 3.32 5 4 C5.73476562 4.11730469 6.46953125 4.23460937 7.2265625 4.35546875 C10.00441168 5.00102525 11.90691901 5.91392077 14.375 7.3125 C20.24768945 10.34046915 26.34388629 11.95839632 32.75469971 13.46788025 C34.41471755 13.86129234 36.07035653 14.27328647 37.72332764 14.69532776 C46.1379017 16.77151712 54.46459746 17.90501211 63.08984375 18.64453125 C64.14284322 18.73833037 64.14284322 18.73833037 65.2171154 18.83402443 C81.5712442 20.2708044 97.91643341 20.55080709 114.32458496 20.66955566 C118.14813909 20.70021417 121.9715093 20.7464301 125.79492188 20.79101562 C133.19651986 20.8751946 140.59813459 20.94332192 148 21 C144.85229626 24.33647408 143.15308915 25.5583962 138.5625 26.1875 C137.63566406 26.32542969 136.70882812 26.46335938 135.75390625 26.60546875 C134.51511719 26.73566406 133.27632812 26.86585938 132 27 C130.81120239 27.13245117 130.81120239 27.13245117 129.59838867 27.26757812 C118.65055659 28.30890999 107.66784982 28.15045178 96.68139648 28.13037109 C93.20617273 28.12502871 89.73107911 28.13033183 86.25585938 28.13671875 C74.46316222 28.14025038 62.75583134 27.98128342 51 27 C49.64467163 26.8930481 49.64467163 26.8930481 48.26196289 26.78393555 C43.87914475 26.37734702 40.1535363 25.3845121 36 24 C32.64662032 23.1650355 29.2907271 22.35728072 25.921875 21.58789062 C21.59730365 20.55213928 17.94790923 19.11370362 14 17 C13.21625 16.7525 12.4325 16.505 11.625 16.25 C7.19452341 14.14024924 2.2291743 10.45834859 0 6 C-0.039992 4.00039988 -0.04346799 1.99952758 0 0 Z " transform="translate(145,156)" style="fill: #514D4E;"/><path d="M0 0 C3 1 3 1 4.1328125 2.63671875 C6.1392467 6.78387606 7.63538116 10.3511098 8 15 C8.06316406 15.79019531 8.12632812 16.58039063 8.19140625 17.39453125 C8.78485346 30.77580863 3.19971802 41.50228043 -5.625 51.1875 C-14.02331833 59.24795495 -24.77881831 62.93830405 -36.1875 63.375 C-49.83411556 63.09102418 -60.83857149 57.68374475 -70.25 47.875 C-77.3888231 38.86301632 -81.12173406 28.66696641 -81.1875 17.25 C-81.20167969 16.12078125 -81.21585938 14.9915625 -81.23046875 13.828125 C-81 11 -81 11 -79 9 C-77.23772078 10.76227922 -77.49169365 13.41590887 -77.1875 15.8125 C-74.97147131 30.67292767 -70.1630585 41.88274885 -58 51 C-50.21695441 56.55263373 -40.14356183 55.98723351 -31 55 C-21.44604437 53.0039858 -14.14374366 48.14182169 -8.25 40.4375 C-0.12872204 27.88474845 -0.22617725 14.48119371 0 0 Z " transform="translate(293,280)" style="fill: #1C0E11;"/><path d="M0 0 C0.60440918 0.19335938 1.20881836 0.38671875 1.83154297 0.5859375 C29.07774397 9.06463206 57.94016781 10.50522051 86.26397705 10.3225708 C89.07138112 10.30917786 91.87862505 10.31439868 94.6860466 10.31945992 C110.38222751 10.34047884 125.93759106 9.85092978 141.58056641 8.42651367 C146.40881596 8.00034745 151.15456368 7.92144397 156 8 C156.09733092 15.09434233 156.10087193 21.98194143 155 29 C154.67 29 154.34 29 154 29 C154 24.71 154 20.42 154 16 C152.36546875 16.144375 150.7309375 16.28875 149.046875 16.4375 C132.68941815 17.74828702 116.36950253 18.24004994 99.96032715 18.29956055 C97.73040232 18.30805245 95.50048978 18.32155782 93.27062988 18.34057617 C66.30286943 18.54591703 41.02366786 14.4337157 15.0625 7.375 C13.98959717 7.08423584 13.98959717 7.08423584 12.89501953 6.78759766 C8.41290313 5.52516516 4.24532416 3.9151006 0 2 C0 1.34 0 0.68 0 0 Z " transform="translate(156,186)" style="fill: #CCC6CA;"/><path d="M0 0 C0.8600766 -0.00090637 1.7201532 -0.00181274 2.60629272 -0.00274658 C26.31267951 0.00008975 26.31267951 0.00008975 30.6875 2.1875 C32.62578798 2.42050618 34.57000136 2.60499861 36.515625 2.765625 C52.18916655 4.16959113 66.16938129 5.49728083 79.6875 14.1875 C79.6875 14.8475 79.6875 15.5075 79.6875 16.1875 C74.15623021 14.7752609 68.75809155 13.26773128 63.4375 11.1875 C35.26741583 0.7334461 1.85846156 2.59453202 -27.62475586 3.82226562 C-29.54667532 3.89929254 -31.46890533 3.968916 -33.39135742 4.03125 C-43.85477088 4.37184089 -53.47863354 4.90407176 -63.4675293 8.25878906 C-66.29077567 9.18040832 -69.00644425 9.73297476 -71.9375 10.1875 C-79.61119182 11.47586652 -86.9579514 13.86495841 -93.875 17.4375 C-97.3125 19.1875 -97.3125 19.1875 -100.3125 19.1875 C-100.580625 19.765 -100.84875 20.3425 -101.125 20.9375 C-102.33206868 23.22457749 -103.76350356 25.12217141 -105.3125 27.1875 C-107.7879258 30.65309611 -107.05960048 33.0605487 -106.41015625 37.12890625 C-106.28127428 39.84573816 -107.32676122 41.73084733 -108.54296875 44.11328125 C-110.1916266 48.55712549 -110.08883093 53.4904495 -110.3125 58.1875 C-111.9625 57.8575 -113.6125 57.5275 -115.3125 57.1875 C-115.3125 56.5275 -115.3125 55.8675 -115.3125 55.1875 C-116.7975 55.6825 -116.7975 55.6825 -118.3125 56.1875 C-118.6425 55.8575 -118.9725 55.5275 -119.3125 55.1875 C-119.3125 57.1675 -119.3125 59.1475 -119.3125 61.1875 C-120.3025 61.6825 -120.3025 61.6825 -121.3125 62.1875 C-122.00387073 64.16825407 -122.00387073 64.16825407 -122.4375 66.5 C-122.60507813 67.27988281 -122.77265625 68.05976563 -122.9453125 68.86328125 C-123.41653188 71.45382555 -123.41653188 71.45382555 -123.3125 75.1875 C-121.3325 75.5175 -119.3525 75.8475 -117.3125 76.1875 C-117.3125 76.8475 -117.3125 77.5075 -117.3125 78.1875 C-116.6525 78.1875 -115.9925 78.1875 -115.3125 78.1875 C-115.3125 78.8475 -115.3125 79.5075 -115.3125 80.1875 C-114.6525 80.1875 -113.9925 80.1875 -113.3125 80.1875 C-113.23902344 81.05761719 -113.23902344 81.05761719 -113.1640625 81.9453125 C-112.8166128 85.57556287 -112.45090276 88.7885744 -111.25 92.25 C-110.03392492 96.06036859 -110.17497166 99.19917817 -110.3125 103.1875 C-112.58510341 99.41300216 -113.18828205 95.33610037 -113.9375 91.0625 C-114.0715625 90.33417969 -114.205625 89.60585937 -114.34375 88.85546875 C-115.3125 83.50757334 -115.3125 83.50757334 -115.3125 81.1875 C-116.22 80.960625 -117.1275 80.73375 -118.0625 80.5 C-121.92745869 78.9391513 -123.26582572 77.80853911 -125.3125 74.1875 C-125.61547769 71.25871568 -125.61629213 69.0637255 -125.3125 66.1875 C-125.25320312 65.33800781 -125.19390625 64.48851562 -125.1328125 63.61328125 C-124.18066818 55.47360844 -120.39074889 50.43223774 -115.3125 44.1875 C-111.7852973 39.66544525 -111.05849846 36.88013214 -110.6328125 31.35546875 C-109.79528339 25.68682661 -105.3408968 21.92043213 -101.12890625 18.4453125 C-98.67428676 16.74555449 -96.19838219 15.89137371 -93.3125 15.1875 C-93.3125 14.5275 -93.3125 13.8675 -93.3125 13.1875 C-91.89853098 12.67992138 -90.48118271 12.18175075 -89.0625 11.6875 C-88.27359375 11.4090625 -87.4846875 11.130625 -86.671875 10.84375 C-84.3125 10.1875 -84.3125 10.1875 -80.3125 10.1875 C-80.3125 9.5275 -80.3125 8.8675 -80.3125 8.1875 C-77.70918031 7.55879677 -75.1049214 6.93450494 -72.5 6.3125 C-71.42202148 6.05146484 -71.42202148 6.05146484 -70.32226562 5.78515625 C-59.78881188 3.27940073 -49.43637682 1.75153319 -38.625 1.0625 C-37.31442627 0.97830811 -36.00385254 0.89411621 -34.65356445 0.80737305 C-23.10636768 0.12177654 -11.5651855 -0.00079794 0 0 Z " transform="translate(265.3125,102.8125)" style="fill: #422124;"/><path d="M0 0 C1.35702026 0.20846558 1.35702026 0.20846558 2.74145508 0.42114258 C3.4867749 0.61216553 4.23209473 0.80318848 5 1 C5.70272252 2.31468752 6.3701719 3.64887499 7 5 C8.86827053 5.87588962 8.86827053 5.87588962 11.0625 6.3125 C17.50317542 8.18842488 22.31327106 12.31327106 27 17 C27.125 19.625 27.125 19.625 27 22 C26.34 22.33 25.68 22.66 25 23 C24.566875 21.4221875 24.566875 21.4221875 24.125 19.8125 C22.19400472 15.35773879 19.16533876 14.01793409 14.85546875 12.12109375 C13.44201172 11.56615234 13.44201172 11.56615234 12 11 C11.08863281 10.64035156 10.17726563 10.28070313 9.23828125 9.91015625 C1.02013501 6.93906654 -7.39259917 5.33039339 -16 4 C-16.85625977 3.86174805 -17.71251953 3.72349609 -18.59472656 3.58105469 C-42.74705466 -0.2090556 -67.88343465 -0.48568498 -92.16259766 2.46362305 C-96.76665678 2.99513208 -99.74798338 3.17805748 -104 1 C-106.70886941 0.83201738 -106.70886941 0.83201738 -109 1 C-103.64114308 -2.57257128 -97.74723292 -2.26157125 -91.484375 -2.53515625 C-90.55514221 -2.57813339 -89.62590942 -2.62111053 -88.66851807 -2.66539001 C-86.6983687 -2.75546758 -84.72812964 -2.84360165 -82.7578125 -2.92993164 C-79.80179199 -3.06021728 -76.8462319 -3.19857325 -73.890625 -3.33789062 C-48.95021821 -4.47905873 -24.70767342 -3.8258335 0 0 Z " transform="translate(314,109)" style="fill: #393333;"/><path d="M0 0 C2.5 1.375 2.5 1.375 5 3 C5 3.66 5 4.32 5 5 C5.66 5 6.32 5 7 5 C7.51527295 8.50385609 7.04241731 9.92979204 5.1875 13 C-8.27076158 27.70230257 -41.08146414 29.36362741 -59.5 31.8125 C-60.88614502 31.99824585 -60.88614502 31.99824585 -62.30029297 32.18774414 C-67.91003235 32.88524056 -73.34754866 33.10914286 -79 33 C-79 32.67 -79 32.34 -79 32 C-76.03 31.34 -73.06 30.68 -70 30 C-70 29.01 -70 28.02 -70 27 C-68.87525269 26.88724731 -68.87525269 26.88724731 -67.7277832 26.7722168 C-64.25509756 26.41915731 -60.78385686 26.05338502 -57.3125 25.6875 C-56.13365234 25.56955078 -54.95480469 25.45160156 -53.74023438 25.33007812 C-45.63827555 24.46438937 -37.90601321 22.94017838 -30 21 C-28.45616015 20.67270534 -26.91074659 20.35266909 -25.36328125 20.04296875 C-17.75341767 18.46265435 -11.39509896 16.75098274 -4.8828125 12.26953125 C-3 11 -3 11 0 10 C0 6.7 0 3.4 0 0 Z " transform="translate(361,149)" style="fill: #413E3F;"/><path d="M0 0 C1.98 0 3.96 0 6 0 C6.5338079 9.33175289 4.91281635 17.92550815 3 27 C3.66 27.33 4.32 27.66 5 28 C5 33.61 5 39.22 5 45 C-3 44 -3 44 -4.91015625 42.66796875 C-6.43125677 40.3399762 -7.26634664 37.80684187 -8.171875 35.19140625 C-9.27510681 32.27200508 -10.72479994 29.58875217 -12.23046875 26.859375 C-13 25 -13 25 -13 21 C-7.48811656 21.52494128 -6.06036905 22.62642063 -1 26 C-0.67 17.42 -0.34 8.84 0 0 Z " transform="translate(254,248)" style="fill: #260D16;"/><path d="M0 0 C1.68178896 2.16230009 3.08299732 4.16599465 4.3125 6.625 C6.51716579 9.72786297 8.38141004 10.03996593 12 11 C12.6084375 11.32226562 13.216875 11.64453125 13.84375 11.9765625 C16.40075778 13.19021475 18.77975543 13.68395575 21.5625 14.1875 C22.51253906 14.36667969 23.46257812 14.54585937 24.44140625 14.73046875 C27.11735832 15.19081128 27.11735832 15.19081128 30 14 C30.33 14.33 30.66 14.66 31 15 C32.34747084 15.23075082 33.70377565 15.41153063 35.0625 15.5625 C36.361875 15.706875 37.66125 15.85125 39 16 C38.67 16.66 38.34 17.32 38 18 C36.68 18 35.36 18 34 18 C38.97677898 19.5402775 43.77039648 20.50636739 48.9375 21.125 C49.62134766 21.21136719 50.30519531 21.29773438 51.00976562 21.38671875 C52.67257046 21.59602285 54.33620513 21.79871722 56 22 C56 22.66 56 23.32 56 24 C57.55460937 24.07347656 57.55460937 24.07347656 59.140625 24.1484375 C60.51044208 24.22349597 61.88023248 24.29904247 63.25 24.375 C63.93191406 24.4059375 64.61382812 24.436875 65.31640625 24.46875 C69.06482002 24.6871042 71.72919393 25.20042523 75 27 C71.18751655 27.02936502 67.37506274 27.04692035 63.5625 27.0625 C62.49322266 27.07087891 61.42394531 27.07925781 60.32226562 27.08789062 C51.79853948 27.11395707 44.07133929 26.90868743 36 24 C32.64662032 23.1650355 29.2907271 22.35728072 25.921875 21.58789062 C21.59730365 20.55213928 17.94790923 19.11370362 14 17 C13.21625 16.7525 12.4325 16.505 11.625 16.25 C7.19452341 14.14024924 2.2291743 10.45834859 0 6 C-0.039992 4.00039988 -0.04346799 1.99952758 0 0 Z " transform="translate(145,156)" style="fill: #767274;"/><path d="M0 0 C0.66 0.33 1.32 0.66 2 1 C2.4921875 3.51953125 2.4921875 3.51953125 2.875 6.8125 C4.81500412 20.52787797 9.07119491 30.80913221 19.328125 40.140625 C26.93829351 45.43659022 33.38392312 46.56587425 42.5625 46.25 C43.57119141 46.23195313 44.57988281 46.21390625 45.61914062 46.1953125 C48.08045605 46.14865249 50.53969571 46.0832157 53 46 C49.99433147 48.00377902 49.32502138 48.25434379 45.9453125 48.34375 C45.16542969 48.37339844 44.38554687 48.40304687 43.58203125 48.43359375 C42.77121094 48.45550781 41.96039063 48.47742188 41.125 48.5 C35.02014261 48.57403618 35.02014261 48.57403618 29.1953125 50.1484375 C27 51 27 51 24.859375 50.3828125 C12.79184122 43.1869868 4.67513505 34.33788529 0 21 C-0.90440659 16.71287786 -1.13508306 12.62604629 -1.125 8.25 C-1.12757813 7.12078125 -1.13015625 5.9915625 -1.1328125 4.828125 C-1 2 -1 2 0 0 Z " transform="translate(213,289)" style="fill: #3D080C;"/><path d="M0 0 C0.33 1.32 0.66 2.64 1 4 C1.9178125 3.71125 2.835625 3.4225 3.78125 3.125 C20.32889997 -1.88101176 20.32889997 -1.88101176 29.43359375 2.9296875 C31 4 31 4 32 6 C26.25 4.125 26.25 4.125 24 3 C17.35549267 2.42221675 11.37213248 4.24217035 5 6 C4.86722656 6.84304688 4.73445313 7.68609375 4.59765625 8.5546875 C4.42105469 9.65039062 4.24445313 10.74609375 4.0625 11.875 C3.88847656 12.96554687 3.71445312 14.05609375 3.53515625 15.1796875 C3 18 3 18 2 20 C3.32 19.67 4.64 19.34 6 19 C6 18.34 6 17.68 6 17 C8.31 16.34 10.62 15.68 13 15 C12.67 16.98 12.34 18.96 12 21 C11.34 21 10.68 21 10 21 C9.71125 21.61875 9.4225 22.2375 9.125 22.875 C8 25 8 25 6 27 C2.34225245 28.10463976 -1.36282333 28.79152756 -4.890625 27.0859375 C-7.24518239 25.22286539 -8.80866824 23.5056625 -9.875 20.6875 C-9.936875 19.8521875 -9.936875 19.8521875 -10 19 C-9.484375 19.309375 -8.96875 19.61875 -8.4375 19.9375 C-5.3381875 21.28848237 -2.3395495 21.56745625 1 22 C1.02684679 19.35409986 1.04676357 16.70846904 1.0625 14.0625 C1.07087891 13.30775391 1.07925781 12.55300781 1.08789062 11.77539062 C1.09652441 9.85005687 1.05224333 7.92464419 1 6 C0.67 5.67 0.34 5.34 0 5 C-0.04063832 3.33382885 -0.042721 1.66611905 0 0 Z " transform="translate(257,270)" style="fill: #B00611;"/><path d="M0 0 C0.33 0 0.66 0 1 0 C1 5.28 1 10.56 1 16 C-0.65 15.67 -2.3 15.34 -4 15 C-4 14.34 -4 13.68 -4 13 C-4.99 13.33 -5.98 13.66 -7 14 C-7.33 13.67 -7.66 13.34 -8 13 C-8 14.98 -8 16.96 -8 19 C-8.66 19.33 -9.32 19.66 -10 20 C-10.69137073 21.98075407 -10.69137073 21.98075407 -11.125 24.3125 C-11.37636719 25.48232422 -11.37636719 25.48232422 -11.6328125 26.67578125 C-12.10403188 29.26632555 -12.10403188 29.26632555 -12 33 C-10.02 33.33 -8.04 33.66 -6 34 C-6 34.66 -6 35.32 -6 36 C-5.34 36 -4.68 36 -4 36 C-4 36.66 -4 37.32 -4 38 C-3.34 38 -2.68 38 -2 38 C-1.92652344 38.87011719 -1.92652344 38.87011719 -1.8515625 39.7578125 C-1.5041128 43.38806287 -1.13840276 46.6010744 0.0625 50.0625 C1.27857508 53.87286859 1.13752834 57.01167817 1 61 C-1.27260341 57.22550216 -1.87578205 53.14860037 -2.625 48.875 C-2.7590625 48.14667969 -2.893125 47.41835937 -3.03125 46.66796875 C-4 41.32007334 -4 41.32007334 -4 39 C-4.9075 38.773125 -5.815 38.54625 -6.75 38.3125 C-10.61495869 36.7516513 -11.95332572 35.62103911 -14 32 C-14.30368937 29.06433611 -14.31585721 26.88158964 -14 24 C-13.90589844 23.08089844 -13.81179687 22.16179687 -13.71484375 21.21484375 C-12.86992524 15.11994614 -11.88741816 12.01854382 -7 8 C-5.73158049 6.57872656 -4.48242729 5.14009397 -3.25 3.6875 C-2.18867073 2.43928448 -1.11131632 1.20392601 0 0 Z " transform="translate(154,145)" style="fill: #3C2124;"/><path d="M0 0 C2.20128411 1.07744351 4.352497 2.19866 6.48828125 3.40234375 C19.98642341 10.73950816 34.49567865 11.52824468 49.54101562 12.91088867 C50.71857422 13.02408447 51.89613281 13.13728027 53.109375 13.25390625 C54.17124023 13.35002197 55.23310547 13.4461377 56.32714844 13.54516602 C59 14 59 14 62 16 C59.57108818 17.21445591 57.99280557 17.12924198 55.28125 17.1328125 C54.34925781 17.13410156 53.41726562 17.13539063 52.45703125 17.13671875 C51.48121094 17.13285156 50.50539062 17.12898438 49.5 17.125 C48.03626953 17.13080078 48.03626953 17.13080078 46.54296875 17.13671875 C45.14498047 17.13478516 45.14498047 17.13478516 43.71875 17.1328125 C42.86216797 17.13168457 42.00558594 17.13055664 41.12304688 17.12939453 C39 17 39 17 37 16 C35.27392556 15.72947385 33.54394983 15.48366394 31.8125 15.25 C20.35499163 13.36563188 8.68730918 10.11496881 0 2 C0 1.34 0 0.68 0 0 Z " transform="translate(160,139)" style="fill: #5B5A5C;"/><path d="M0 0 C4.97874064 0.47416578 8.06718758 1.9099331 12 5 C12 5.66 12 6.32 12 7 C11.34 7 10.68 7 10 7 C10.33 7.66 10.66 8.32 11 9 C11.07065617 11.04055005 11.08421976 13.08334257 11.0625 15.125 C11.05347656 16.22070312 11.04445312 17.31640625 11.03515625 18.4453125 C11.02355469 19.28835938 11.01195312 20.13140625 11 21 C12.65 21 14.3 21 16 21 C16 17.04 16 13.08 16 9 C16.33 9 16.66 9 17 9 C17.33 13.95 17.66 18.9 18 24 C10.48964916 23.38439747 10.48964916 23.38439747 8.328125 21.6875 C6.54128883 19.41716698 5.76522841 16.89804003 4.828125 14.19140625 C3.72489319 11.27200508 2.27520006 8.58875217 0.76953125 5.859375 C0 4 0 4 0 0 Z " transform="translate(241,269)" style="fill: #730711;"/><path d="M0 0 C1.32 0.66 2.64 1.32 4 2 C4 2.66 4 3.32 4 4 C4.66 4 5.32 4 6 4 C14.86518316 22.22537656 14.86518316 22.22537656 12 31 C9.32364888 33.75506733 6.93832204 35.02651951 3.40234375 36.546875 C1.13463785 37.83815793 0.18812078 38.48852276 -0.72167969 40.9621582 C-1.06809911 43.34160732 -1.23042841 45.65952029 -1.3125 48.0625 C-1.40577287 49.67880381 -1.50576365 51.29473748 -1.61328125 52.91015625 C-1.64204346 53.62308838 -1.67080566 54.33602051 -1.70043945 55.07055664 C-2 57 -2 57 -4 60 C-3.86105852 56.89548451 -3.712657 53.79149165 -3.5625 50.6875 C-3.50352539 49.36588867 -3.50352539 49.36588867 -3.44335938 48.01757812 C-3.40146484 47.17001953 -3.35957031 46.32246094 -3.31640625 45.44921875 C-3.27974854 44.66893311 -3.24309082 43.88864746 -3.20532227 43.0847168 C-3 41 -3 41 -2 38 C-4.97 38.495 -4.97 38.495 -8 39 C-5.37237786 36.37237786 -2.31793921 35.3227049 1.0625 33.9375 C5.33912136 32.44283706 5.33912136 32.44283706 9 30 C9.19989763 28.00009484 9.19989763 28.00009484 9.1875 25.6875 C9.20876953 24.51767578 9.20876953 24.51767578 9.23046875 23.32421875 C8.97597257 20.75768944 8.36848466 19.17517036 7 17 C6.34 16.67 5.68 16.34 5 16 C5.66 13.36 6.32 10.72 7 8 C6.34 8 5.68 8 5 8 C3.7109375 6.25 3.7109375 6.25 2.375 4 C1.70597656 2.88625 1.70597656 2.88625 1.0234375 1.75 C0.68570312 1.1725 0.34796875 0.595 0 0 Z " transform="translate(361,146)" style="fill: #1C0709;"/><path d="M0 0 C3.375 0.3125 3.375 0.3125 7 1 C9.30821663 4.46232494 9.27000989 5.91798316 9.25 10 C9.25515625 11.051875 9.2603125 12.10375 9.265625 13.1875 C9 16 9 16 7 19 C6.46375 18.0925 5.9275 17.185 5.375 16.25 C3.6216999 13.5569815 2.63051447 12.7655188 -0.25 10.9375 C-3 9 -3 9 -3.5625 6.5 C-2.92597004 3.67097795 -1.91245975 2.15151722 0 0 Z " transform="translate(220,282)" style="fill: #EC636D;"/><path d="M0 0 C0.33 0 0.66 0 1 0 C0.2526858 7.38378923 -0.82117754 14.70691156 -1.92739868 22.04376221 C-4.87960776 41.66166773 -7.46681706 61.32425491 -10 81 C-10.33 81 -10.66 81 -11 81 C-11.08639879 74.39791066 -10.90446133 67.88866368 -10.3125 61.3125 C-10.23 60.39476807 -10.1475 59.47703613 -10.0625 58.53149414 C-8.84289579 46.13929905 -6.68187856 33.87436711 -4.59375 21.60498047 C-3.83789178 17.01575247 -3.18056502 12.4141991 -2.54492188 7.80688477 C-2.00095792 5.00493422 -1.14822549 2.60648379 0 0 Z " transform="translate(344,291)" style="fill: #2F080D;"/><path d="M0 0 C13.08573907 -1.35059234 28.87519096 2.08107487 39.22265625 10.3515625 C39.80917969 10.89554688 40.39570313 11.43953125 41 12 C41.57234375 12.50917969 42.1446875 13.01835938 42.734375 13.54296875 C44 15 44 15 44.1875 17.6875 C44.0946875 18.8321875 44.0946875 18.8321875 44 20 C43.01 20.495 43.01 20.495 42 21 C41.71125 19.948125 41.4225 18.89625 41.125 17.8125 C39.19400472 13.35773879 36.16533876 12.01793409 31.85546875 10.12109375 C30.91316406 9.75113281 29.97085937 9.38117188 29 9 C28.08863281 8.64035156 27.17726563 8.28070313 26.23828125 7.91015625 C19.65815067 5.53125502 13.06094493 4.11974814 6.16748047 3.03857422 C4.43384221 2.75338881 2.71450293 2.38381246 1 2 C0.67 1.34 0.34 0.68 0 0 Z " transform="translate(297,111)" style="fill: #7D7778;"/><path d="M0 0 C1.68178896 2.16230009 3.08299732 4.16599465 4.3125 6.625 C6.51716579 9.72786297 8.38141004 10.03996593 12 11 C12.6084375 11.32226562 13.216875 11.64453125 13.84375 11.9765625 C16.40075778 13.19021475 18.77975543 13.68395575 21.5625 14.1875 C22.51253906 14.36667969 23.46257812 14.54585937 24.44140625 14.73046875 C27.11735832 15.19081128 27.11735832 15.19081128 30 14 C30.33 14.33 30.66 14.66 31 15 C32.34747084 15.23075082 33.70377565 15.41153063 35.0625 15.5625 C36.361875 15.706875 37.66125 15.85125 39 16 C38.67 16.66 38.34 17.32 38 18 C32.1142177 19.15613581 26.9057942 18.88860329 21 18 C22.98 18.66 24.96 19.32 27 20 C27 20.33 27 20.66 27 21 C21.98993036 20.49899304 18.41017273 19.396833 14 17 C13.21625 16.7525 12.4325 16.505 11.625 16.25 C7.19452341 14.14024924 2.2291743 10.45834859 0 6 C-0.039992 4.00039988 -0.04346799 1.99952758 0 0 Z " transform="translate(145,156)" style="fill: #6A6769;"/><path d="M0 0 C0 0.66 0 1.32 0 2 C1.08861328 2.17402344 1.08861328 2.17402344 2.19921875 2.3515625 C5.0691483 3.01600923 7.22031881 3.99306172 9.8125 5.375 C13.01824801 7.04026132 16.15364736 8.49194916 19.5625 9.6875 C23 11 23 11 24 13 C18.80237031 14.84432021 14.88165191 12.86040907 10 11 C9.10925781 10.70867187 8.21851563 10.41734375 7.30078125 10.1171875 C0.49118625 7.75122602 0.49118625 7.75122602 -2.125 3.75 C-2.41375 2.8425 -2.7025 1.935 -3 1 C-2 0 -2 0 0 0 Z " transform="translate(150,158)" style="fill: #575557;"/><path d="M0 0 C2.76838058 0.2316885 5.49629814 0.52452885 8.25 0.875 C9.01441406 0.96652344 9.77882813 1.05804688 10.56640625 1.15234375 C14.41543006 1.62433113 18.20904277 2.16598941 22 3 C22.495 4.485 22.495 4.485 23 6 C19.27888804 7.17627855 16.90681978 6.51298396 13.16308594 5.48046875 C9.64196339 4.69835033 6.21062599 4.87521118 2.625 5 C-3.82480513 5.12415681 -9.73847511 4.72307319 -16 3 C-16 2.67 -16 2.34 -16 2 C-14.92878906 1.93941406 -13.85757812 1.87882812 -12.75390625 1.81640625 C-11.35675609 1.73201463 -9.95962143 1.64736594 -8.5625 1.5625 C-7.50192383 1.50352539 -7.50192383 1.50352539 -6.41992188 1.44335938 C-2.91309581 1.52375562 -2.91309581 1.52375562 0 0 Z " transform="translate(297,107)" style="fill: #413F3E;"/><path d="M0 0 C0.66 0 1.32 0 2 0 C2.09507063 6.43311296 2.15316726 12.65758005 1 19 C1.99 18.34 2.98 17.68 4 17 C7.9032099 15.72258585 10.87239983 15 15 15 C15 15.66 15 16.32 15 17 C3.9083825 21.9799099 -7.80977007 24.47804823 -20 24 C-20 23.67 -20 23.34 -20 23 C-18.14718166 22.6592518 -16.29265605 22.32778217 -14.4375 22 C-13.40496094 21.814375 -12.37242187 21.62875 -11.30859375 21.4375 C-8 21 -8 21 -1 21 C-0.67 14.07 -0.34 7.14 0 0 Z " transform="translate(295,387)" style="fill: #4C242C;"/><path d="M0 0 C5.09277415 1.746094 8.79757993 3.93655048 11.5546875 8.66796875 C13.63347156 13.46040877 14.28887419 18.31459564 15.15625 23.44140625 C15.97071344 26.87648121 17.1595181 29.04131834 19 32 C18.67 32.66 18.34 33.32 18 34 C17.77532169 35.53668865 17.59203195 37.07968054 17.4375 38.625 C17.31181641 39.85089844 17.31181641 39.85089844 17.18359375 41.1015625 C17.12300781 41.72804687 17.06242187 42.35453125 17 43 C16.67 43 16.34 43 16 43 C13.48048023 33.91260587 11.45475678 25.12266409 10.94775391 15.67407227 C10.63907611 11.8211616 10.0775341 10.09326566 7.57421875 7.08203125 C5.16756128 4.98311608 5.16756128 4.98311608 2.75 3.875 C1 3 1 3 0 0 Z " transform="translate(344,116)" style="fill: #291013;"/><path d="M0 0 C1.50337636 3.00675271 0.70410416 5.37984372 0.2578125 8.6875 C0.16998505 9.34580811 0.08215759 10.00411621 -0.0083313 10.68237305 C-0.19546166 12.07478301 -0.38563711 13.46678661 -0.57861328 14.85839844 C-0.87369839 16.99059493 -1.15830862 19.12399491 -1.44140625 21.2578125 C-2.85682263 31.71364526 -2.85682263 31.71364526 -4 34 C-4.15915679 35.53851559 -4.27706625 37.08137761 -4.375 38.625 C-4.98943139 46.18955693 -6.51723615 53.56752966 -8 61 C-8.33 61 -8.66 61 -9 61 C-7.91759919 31.91759919 -7.91759919 31.91759919 -5 29 C-4.64194058 26.94491948 -4.34015263 24.87997951 -4.0625 22.8125 C-3.88976562 21.55695313 -3.71703125 20.30140625 -3.5390625 19.0078125 C-3.35889331 17.67193988 -3.17921181 16.3360014 -3 15 C-2.65058077 12.39512376 -2.29570991 9.79120484 -1.9375 7.1875 C-1.78152344 6.02605469 -1.62554687 4.86460937 -1.46484375 3.66796875 C-1 1 -1 1 0 0 Z " transform="translate(356,211)" style="fill: #360A11;"/><path d="M0 0 C2.5 1.375 2.5 1.375 5 3 C5 3.66 5 4.32 5 5 C5.66 5 6.32 5 7 5 C7 6.65 7 8.3 7 10 C6.34 10 5.68 10 5 10 C3.61767557 11.62626404 2.28062485 13.2925002 1 15 C0.01 14.67 -0.98 14.34 -2 14 C-3.99983534 14.79117904 -3.99983534 14.79117904 -6 16 C-8.0625 17.1875 -8.0625 17.1875 -10 18 C-10.99 17.67 -11.98 17.34 -13 17 C-11.39805929 16.01719585 -9.79336258 15.03888283 -8.1875 14.0625 C-7.29417969 13.51722656 -6.40085937 12.97195312 -5.48046875 12.41015625 C-3 11 -3 11 0 10 C0 6.7 0 3.4 0 0 Z " transform="translate(361,149)" style="fill: #322E30;"/><path d="M0 0 C0 5.28 0 10.56 0 16 C-1.65 15.67 -3.3 15.34 -5 15 C-5 14.34 -5 13.68 -5 13 C-5.99 13.33 -6.98 13.66 -8 14 C-8.66 12.35 -9.32 10.7 -10 9 C-8.33333333 7.33333333 -6.66666667 5.66666667 -5 4 C-4.2575 3.236875 -3.515 2.47375 -2.75 1.6875 C-1 0 -1 0 0 0 Z " transform="translate(155,145)" style="fill: #413D3D;"/><path d="M0 0 C0.66 0.33 1.32 0.66 2 1 C2.01417969 2.17175781 2.02835938 3.34351563 2.04296875 4.55078125 C2.26244911 13.1014084 2.6121386 20.12220417 6.94140625 27.73828125 C8.15697885 30.33539023 8.19561736 32.16605619 8 35 C0.96686912 27.21331938 -1.14872333 18.54592444 -1.125 8.25 C-1.12757813 7.12078125 -1.13015625 5.9915625 -1.1328125 4.828125 C-1 2 -1 2 0 0 Z " transform="translate(213,289)" style="fill: #2E181A;"/><path d="M0 0 C0.7425 0.4640625 0.7425 0.4640625 1.5 0.9375 C7.78630128 3.60917805 12.76809964 3.20713138 19 1 C17.11900157 4.47984709 15.59886509 7.20056745 12 9 C8.54978845 9.06273112 6.13035193 8.97210266 3.4375 6.65625 C0 2.671875 0 2.671875 0 0 Z " transform="translate(247,289)" style="fill: #DB595A;"/><path d="M0 0 C2.20128411 1.07744351 4.352497 2.19866 6.48828125 3.40234375 C14.60529514 7.81449653 21.98653127 9.49414405 31 11 C32.33774954 11.31514292 33.67398248 11.63866023 35 12 C35 12.66 35 13.32 35 14 C22.61507654 13.11536261 9.21960169 10.99797665 0 2 C0 1.34 0 0.68 0 0 Z " transform="translate(160,139)" style="fill: #79787A;"/><path d="M0 0 C0.33 1.32 0.66 2.64 1 4 C1.9178125 3.71125 2.835625 3.4225 3.78125 3.125 C20.32889997 -1.88101176 20.32889997 -1.88101176 29.43359375 2.9296875 C31 4 31 4 32 6 C26.25 4.125 26.25 4.125 24 3 C17.83734843 2.4864457 12.81003582 4.04424082 7 6 C5.205625 6.5878125 5.205625 6.5878125 3.375 7.1875 C2.59125 7.455625 1.8075 7.72375 1 8 C0.67 5.36 0.34 2.72 0 0 Z " transform="translate(257,270)" style="fill: #A03335;"/><path d="M0 0 C0.33 0.66 0.66 1.32 1 2 C0.690625 2.9075 0.38125 3.815 0.0625 4.75 C-2.66526114 13.57836205 -1.16557104 23.96682444 0 33 C-3.69232118 27.46151823 -4.25918289 21.73645345 -4.75390625 15.234375 C-4.93922586 12.83154374 -4.93922586 12.83154374 -6 10 C-5.29296875 8.02734375 -5.29296875 8.02734375 -4.1875 5.9375 C-3.83042969 5.24527344 -3.47335938 4.55304688 -3.10546875 3.83984375 C-2 2 -2 2 0 0 Z " transform="translate(219,277)" style="fill: #AB1F27;"/><path d="M0 0 C1.98667876 2.98001814 2.78884406 5.2854775 3.8125 8.6875 C7.13503628 18.76424325 11.91394927 24.23249978 20 31 C20.66 31.66 21.32 32.32 22 33 C16.15175123 32.10026942 12.4107756 28.5477008 9 24 C8.01 24 7.02 24 6 24 C5.81824219 23.34773438 5.63648438 22.69546875 5.44921875 22.0234375 C4.31613578 18.08379518 3.2674591 14.49529463 1.3125 10.875 C-0.4476842 7.01935841 -0.21770539 4.20897089 0 0 Z " transform="translate(215,300)" style="fill: #390506;"/><path d="M0 0 C0.58700684 0.19118408 1.17401367 0.38236816 1.77880859 0.5793457 C8.33086843 2.63832634 14.86135777 4.02711545 21.625 5.1875 C22.62917969 5.36474609 23.63335937 5.54199219 24.66796875 5.72460938 C27.1110997 6.15506578 29.55503622 6.58010265 32 7 C28.24810257 9.50126495 25.33888556 9.43166249 21 9 C18.19907762 8.39814891 15.52247353 7.54820629 12.8125 6.625 C12.12736328 6.40328125 11.44222656 6.1815625 10.73632812 5.953125 C7.10193494 4.76381443 3.53108073 3.46728403 0 2 C0 1.34 0 0.68 0 0 Z " transform="translate(156,186)" style="fill: #C3BEC2;"/><path d="M0 0 C0.66 0 1.32 0 2 0 C2.33 0.804375 2.66 1.60875 3 2.4375 C7.11689938 10.462608 13.3477201 16.13478778 21.48046875 19.9140625 C28.17085237 21.978354 35.04315306 21.98351458 42 22 C42 22.33 42 22.66 42 23 C29.16864966 23.76988102 19.69754777 23.42607782 9.375 14.80859375 C5.30262476 10.95158451 1.93930248 7.30076013 0 2 C0 1.34 0 0.68 0 0 Z " transform="translate(220,313)" style="fill: #A8191E;"/><path d="M0 0 C1.65 0.99 3.3 1.98 5 3 C4.88926332 6.68807156 4.75884028 10.37520029 4.625 14.0625 C4.57859375 15.62000977 4.57859375 15.62000977 4.53125 17.20898438 C4.31801661 22.80636091 3.84871715 27.7018472 2 33 C1.09967728 29.93261111 0.89426073 27.23396698 0.9375 24.04296875 C0.94523437 23.09486328 0.95296875 22.14675781 0.9609375 21.16992188 C0.98682571 19.19335736 1.01286554 17.21679482 1.0390625 15.24023438 C1.08134909 10.03545942 0.91534031 5.12733594 0 0 Z " transform="translate(289,276)" style="fill: #BA1415;"/><path d="M0 0 C0.33 0 0.66 0 1 0 C5.5691466 26.9576474 5.5691466 26.9576474 6 39 C1.13101139 34.13101139 1.48801055 24.50475234 0.875 17.9375 C0.74544922 16.6680957 0.74544922 16.6680957 0.61328125 15.37304688 C0.11292488 10.22255314 -0.08374366 5.17416183 0 0 Z " transform="translate(162,252)" style="fill: #5C343E;"/><path d="M0 0 C3.16669741 5.44808157 3.33429389 11.86430842 4.1875 18 C4.47270508 19.92585938 4.47270508 19.92585938 4.76367188 21.890625 C4.93833984 23.12296875 5.11300781 24.3553125 5.29296875 25.625 C5.53309692 27.31496094 5.53309692 27.31496094 5.77807617 29.0390625 C5.97882717 31.71750925 5.85486693 33.48410631 5 36 C2.6723706 29.81610735 1.39345514 24.00922186 0.8125 17.4375 C0.6897168 16.23963867 0.6897168 16.23963867 0.56445312 15.01757812 C0.07685395 9.98997988 -0.07520264 5.05014649 0 0 Z " transform="translate(170,305)" style="fill: #623842;"/><path d="M0 0 C0.33 0.99 0.66 1.98 1 3 C1.99 3 2.98 3 4 3 C3.34 11.25 2.68 19.5 2 28 C1.67 28 1.34 28 1 28 C0.67 26.35 0.34 24.7 0 23 C-0.66 23.33 -1.32 23.66 -2 24 C-1.67 22.824375 -1.34 21.64875 -1 20.4375 C0.53227012 13.70414398 0.16270741 6.86082894 0 0 Z " transform="translate(300,291)" style="fill: #D3C9CB;"/><path d="M0 0 C1.9375 0.8125 1.9375 0.8125 4 2 C4.33 2.99 4.66 3.98 5 5 C5.5775 5.28875 6.155 5.5775 6.75 5.875 C9.76030003 7.38015001 11.70147544 9.57377963 14 12 C13.34 12.66 12.68 13.32 12 14 C2.40546697 6.88610478 2.40546697 6.88610478 -1 2 C-0.67 1.34 -0.34 0.68 0 0 Z " transform="translate(222,323)" style="fill: #241A1D;"/><path d="M0 0 C1.68178896 2.16230009 3.08299732 4.16599465 4.3125 6.625 C6.51716579 9.72786297 8.38141004 10.03996593 12 11 C13.34721283 11.63815344 14.68747118 12.29325371 16 13 C14 15 14 15 11.3125 15 C6.93224391 13.67765854 4.1466035 11.26796011 1 8 C-0.35439668 5.29120665 -0.06501451 2.99066732 0 0 Z " transform="translate(145,156)" style="fill: #79777A;"/><path d="M0 0 C5.61935223 0.42200669 10.70208331 0.95307764 16 3 C17.11375 3.37125 18.2275 3.7425 19.375 4.125 C20.24125 4.41375 21.1075 4.7025 22 5 C22 5.33 22 5.66 22 6 C13.42497896 6.74637514 7.53681286 5.08183289 0 1 C0 0.67 0 0.34 0 0 Z " transform="translate(165,173)" style="fill: #858284;"/><path d="M0 0 C1.93816735 0.1141866 3.87555099 0.24173423 5.8125 0.375 C6.89144531 0.44460937 7.97039062 0.51421875 9.08203125 0.5859375 C12 1 12 1 15 3 C12.54724859 4.2263757 10.9494219 4.11415314 8.2109375 4.09765625 C7.26992187 4.09443359 6.32890625 4.09121094 5.359375 4.08789062 C4.37453125 4.07951172 3.3896875 4.07113281 2.375 4.0625 C1.38242188 4.05798828 0.38984375 4.05347656 -0.6328125 4.04882812 C-3.0886016 4.03702145 -5.54427104 4.020554 -8 4 C-8 3.67 -8 3.34 -8 3 C-5.36 3 -2.72 3 0 3 C0 2.01 0 1.02 0 0 Z " transform="translate(207,152)" style="fill: #3A393B;"/><path d="M0 0 C2.375 0.4375 2.375 0.4375 5 2 C5.78806248 4.26404691 6.18781617 6.43960896 6.54296875 8.80859375 C6.91573218 11.27783578 6.91573218 11.27783578 9 14 C9.125 17.1875 9.125 17.1875 9 20 C6.05981413 18.52990707 5.89920612 16.21933899 4.86328125 13.265625 C3.7324282 10.29777538 2.28035386 7.551365 0.76953125 4.76171875 C0 3 0 3 0 0 Z " transform="translate(241,270)" style="fill: #8C020B;"/><path d="M0 0 C2.5 1 2.5 1 4 2 C3 3 3 3 0.31616211 3.11352539 C-0.85164795 3.10828857 -2.01945801 3.10305176 -3.22265625 3.09765625 C-4.48271484 3.09443359 -5.74277344 3.09121094 -7.04101562 3.08789062 C-8.38151109 3.07953403 -9.72200588 3.07106907 -11.0625 3.0625 C-12.40689942 3.0574866 -13.7513006 3.05292342 -15.09570312 3.04882812 C-18.39717941 3.03699488 -21.69856803 3.02050971 -25 3 C-25 2.67 -25 2.34 -25 2 C-23.41058594 1.90912109 -23.41058594 1.90912109 -21.7890625 1.81640625 C-20.40102779 1.73199873 -19.01300768 1.64735083 -17.625 1.5625 C-16.92632812 1.52318359 -16.22765625 1.48386719 -15.5078125 1.44335938 C-10.11429562 1.10626457 -5.50207025 -0.46756723 0 0 Z " transform="translate(230,154)" style="fill: #2C2C2E;"/><path d="M0 0 C0.66 0.33 1.32 0.66 2 1 C1.67 1.66 1.34 2.32 1 3 C0.77141886 5.0374763 0.58975722 7.08040303 0.4375 9.125 C0.35371094 10.22070312 0.26992188 11.31640625 0.18359375 12.4453125 C0.12300781 13.28835938 0.06242187 14.13140625 0 15 C-1.65 15 -3.3 15 -5 15 C-5.33 10.38 -5.66 5.76 -6 1 C-5.01 1 -4.02 1 -3 1 C-3 5.29 -3 9.58 -3 14 C-2.34 14 -1.68 14 -1 14 C-1.01160156 13.15695312 -1.02320313 12.31390625 -1.03515625 11.4453125 C-1.04417969 10.34960938 -1.05320313 9.25390625 -1.0625 8.125 C-1.07410156 7.03445313 -1.08570313 5.94390625 -1.09765625 4.8203125 C-1 2 -1 2 0 0 Z " transform="translate(257,275)" style="fill: #3D0810;"/><path d="M0 0 C0.33 0.99 0.66 1.98 1 3 C-3.51920401 9.84336608 -9.50340019 12.93626984 -17 16 C-17.66 16 -18.32 16 -19 16 C-19 15.34 -19 14.68 -19 14 C-18.27554687 13.61328125 -17.55109375 13.2265625 -16.8046875 12.828125 C-6.65636392 8.21200916 -6.65636392 8.21200916 0 0 Z " transform="translate(329,387)" style="fill: #32080D;"/><path d="M0 0 C0.33 0 0.66 0 1 0 C1.53477621 3.39378931 2.05033758 6.79023051 2.5625 10.1875 C2.71396484 11.14720703 2.86542969 12.10691406 3.02148438 13.09570312 C3.16005859 14.02705078 3.29863281 14.95839844 3.44140625 15.91796875 C3.57232666 16.77156982 3.70324707 17.6251709 3.83813477 18.50463867 C4.01245125 21.19195204 3.63876982 23.39390077 3 26 C-0.64037693 20.5394346 -0.13239068 14.46892333 -0.0625 8.125 C-0.05798828 7.34125 -0.05347656 6.5575 -0.04882812 5.75 C-0.03714093 3.83329986 -0.01920908 1.91663952 0 0 Z " transform="translate(158,224)" style="fill: #502B33;"/><path d="M0 0 C-0.33 1.32 -0.66 2.64 -1 4 C-1 3.34 -1 2.68 -1 2 C-2.6065676 2.25620684 -4.2102483 2.53055871 -5.8125 2.8125 C-6.70582031 2.96332031 -7.59914062 3.11414063 -8.51953125 3.26953125 C-11.25006198 4.0736403 -12.0971072 4.97024768 -14 7 C-16.30988315 7.74386068 -18.64315944 8.42190703 -21 9 C-14.97594613 2.2229394 -9.10866973 -0.65061927 0 0 Z " transform="translate(241,268)" style="fill: #AB3239;"/><path d="M0 0 C-5.92295536 1.84269722 -11.8887076 2.9611908 -18 4 C-18.66 6.31 -19.32 8.62 -20 11 C-20.33 11 -20.66 11 -21 11 C-21 8.03 -21 5.06 -21 2 C-18.25162151 1.46892686 -15.50187625 0.94984119 -12.75 0.4375 C-11.97269531 0.28603516 -11.19539063 0.13457031 -10.39453125 -0.02148438 C-9.64042969 -0.16005859 -8.88632812 -0.29863281 -8.109375 -0.44140625 C-7.07248535 -0.63778687 -7.07248535 -0.63778687 -6.01464844 -0.83813477 C-3.78712058 -1.01710362 -2.12493038 -0.65206197 0 0 Z " transform="translate(334,191)" style="fill: #3C0D16;"/><path d="M0 0 C0.66 0.33 1.32 0.66 2 1 C1.91240742 3.54320516 1.80546587 6.08316933 1.6875 8.625 C1.66494141 9.33785156 1.64238281 10.05070312 1.61914062 10.78515625 C1.37993032 15.52586948 0.45735603 18.82315355 -2 23 C-3.30120067 20.39759867 -2.78052242 19.36867474 -2.125 16.5625 C-0.93729756 11.06536369 -0.40477296 5.60290997 0 0 Z " transform="translate(345,273)" style="fill: #410B13;"/><path d="M0 0 C0.33 1.32 0.66 2.64 1 4 C1.73605469 3.855625 2.47210938 3.71125 3.23046875 3.5625 C4.20628906 3.376875 5.18210937 3.19125 6.1875 3 C7.15042969 2.814375 8.11335938 2.62875 9.10546875 2.4375 C11.7934206 2.03122388 14.28771019 1.92066428 17 2 C13.69289314 3.78198477 10.31785001 4.96157065 6.75 6.125 C5.13351562 6.65480469 5.13351562 6.65480469 3.484375 7.1953125 C2.66453125 7.46085937 1.8446875 7.72640625 1 8 C0.67 5.36 0.34 2.72 0 0 Z " transform="translate(257,270)" style="fill: #962229;"/><path d="M0 0 C1.7290774 -0.02725341 3.45828176 -0.04650987 5.1875 -0.0625 C6.15042969 -0.07410156 7.11335938 -0.08570312 8.10546875 -0.09765625 C10.85576513 -0.00486622 13.32479591 0.37888315 16 1 C15.67 1.99 15.34 2.98 15 4 C12.66666667 3.66666667 10.33333333 3.33333333 8 3 C6.72125 2.855625 5.4425 2.71125 4.125 2.5625 C3.09375 2.376875 2.0625 2.19125 1 2 C0.67 1.34 0.34 0.68 0 0 Z " transform="translate(297,111)" style="fill: #666064;"/><path d="M0 0 C5.60461531 0.42089996 10.72086547 0.91613111 16 3 C16 3.33 16 3.66 16 4 C10.55306686 4.09688221 5.36095333 4.12862175 0 3 C0 2.01 0 1.02 0 0 Z " transform="translate(314,107)" style="fill: #381A1D;"/><path d="M0 0 C0.33 0 0.66 0 1 0 C1.22236782 3.06206505 1.42834898 6.12376646 1.625 9.1875 C1.68945312 10.05181641 1.75390625 10.91613281 1.8203125 11.80664062 C2.10046459 16.37662165 2.2531859 19.846226 0 24 C-0.33 24 -0.66 24 -1 24 C-0.67 16.08 -0.34 8.16 0 0 Z " transform="translate(254,248)" style="fill: #3E1F25;"/><path d="M0 0 C1.65 0.99 3.3 1.98 5 3 C4.67 10.59 4.34 18.18 4 26 C3.67 26 3.34 26 3 26 C2.98018066 25.42556152 2.96036133 24.85112305 2.93994141 24.25927734 C2.84407976 21.63076167 2.73465126 19.00297509 2.625 16.375 C2.57859375 15.01955078 2.57859375 15.01955078 2.53125 13.63671875 C2.31706465 8.74615328 1.87645845 4.59198368 0 0 Z " transform="translate(289,276)" style="fill: #7F1818;"/><path d="M0 0 C0.90105469 0.19464844 1.80210937 0.38929688 2.73046875 0.58984375 C3.41753906 0.74582031 4.10460937 0.90179688 4.8125 1.0625 C4.4825 1.7225 4.1525 2.3825 3.8125 3.0625 C-0.85039322 3.91736376 -4.56377754 4.36292194 -9.1875 3.0625 C-8.8575 2.0725 -8.5275 1.0825 -8.1875 0.0625 C-4.80475734 -1.06508089 -3.41971777 -0.75500262 0 0 Z " transform="translate(179.1875,170.9375)" style="fill: #636062;"/><path d="M0 0 C0.66 0.33 1.32 0.66 2 1 C1.01 2.485 1.01 2.485 0 4 C1.32 5.32 2.64 6.64 4 8 C2.88625 7.95875 1.7725 7.9175 0.625 7.875 C-3.04366025 7.58878141 -3.04366025 7.58878141 -5 10 C-4.56802365 5.2482602 -3.67230705 3.07999946 0 0 Z " transform="translate(223,275)" style="fill: #C00D17;"/><path d="M0 0 C0 5.28 0 10.56 0 16 C-0.66 16 -1.32 16 -2 16 C-2.22127098 13.70954632 -2.4266504 11.41755236 -2.625 9.125 C-2.74101562 7.84882813 -2.85703125 6.57265625 -2.9765625 5.2578125 C-2.98816406 3.64519531 -2.98816406 3.64519531 -3 2 C-1 0 -1 0 0 0 Z " transform="translate(256,273)" style="fill: #240E15;"/><path d="M0 0 C0.33 0 0.66 0 1 0 C1.52919967 3.17519799 1.75232322 4.92186708 1 8 C-1.67080414 11.6756096 -4.7400286 14.84351976 -8 18 C-8 13.48719655 -5.28573068 11.08054114 -2.62890625 7.5703125 C-0.97209553 4.95596849 -0.38729501 3.04381148 0 0 Z " transform="translate(155,136)" style="fill: #402727;"/><path d="M0 0 C0.99 1.485 0.99 1.485 2 3 C2.66 2.01 3.32 1.02 4 0 C4.18451025 9.41002278 4.18451025 9.41002278 3 14 C2.67 14 2.34 14 2 14 C0.66416101 9.15758367 -0.25328119 5.06562383 0 0 Z " transform="translate(256,250)" style="fill: #3D2630;"/><path d="M0 0 C2.91345905 1.4467291 5.81395308 2.91285775 8.6875 4.4375 C9.47511719 4.84871094 10.26273438 5.25992188 11.07421875 5.68359375 C13 7 13 7 14 10 C8.48364034 8.62091009 4.13041773 5.8578521 0 2 C0 1.34 0 0.68 0 0 Z " transform="translate(160,139)" style="fill: #626365;"/><path d="M0 0 C1.60517097 0.08733576 3.20921662 0.19552224 4.8125 0.3125 C6.15248047 0.39951172 6.15248047 0.39951172 7.51953125 0.48828125 C10.30604 1.06313581 11.24135754 1.8206856 13 4 C7.66404866 4.27131956 4.38616179 4.4266889 0 1 C0 0.67 0 0.34 0 0 Z " transform="translate(311,113)" style="fill: #837C7F;"/><path d="M0 0 C0.33 0.66 0.66 1.32 1 2 C-0.92095521 6.16206962 -3.0531588 7.81885092 -7 10 C-7.33 10.66 -7.66 11.32 -8 12 C-9.32 11.67 -10.64 11.34 -12 11 C-11.46890625 10.62488281 -10.9378125 10.24976563 -10.390625 9.86328125 C-6.31226272 6.90870127 -2.93808 4.16228001 0 0 Z " transform="translate(285,320)" style="fill: #3F0508;"/><path d="M0 0 C1.125 3.75 1.125 3.75 0 6 C-0.66 6 -1.32 6 -2 6 C-2.2475 6.61875 -2.495 7.2375 -2.75 7.875 C-4.20628639 10.35068687 -5.37812506 10.95125002 -8 12 C-5.6163187 7.65829477 -3.21880117 3.7935871 0 0 Z " transform="translate(269,285)" style="fill: #C01315;"/><path d="M0 0 C0.33 0 0.66 0 1 0 C1.09706112 6.11485027 0.77040851 11.93303301 0 18 C-0.99 17.67 -1.98 17.34 -3 17 C-2.67 16.34 -2.34 15.68 -2 15 C-1.79533366 13.02440132 -1.63450941 11.04411189 -1.5 9.0625 C-1.2759354 5.76955062 -1.04612306 3.13836918 0 0 Z " transform="translate(253,256)" style="fill: #D9C9CB;"/><path d="M0 0 C0 0.33 0 0.66 0 1 C-1.65 1.33 -3.3 1.66 -5 2 C-5 2.33 -5 2.66 -5 3 C-9.95 2.67 -14.9 2.34 -20 2 C-20 1.67 -20 1.34 -20 1 C-13.31184516 0.37577221 -6.71884955 -0.12920865 0 0 Z " transform="translate(297,195)" style="fill: #9A9999;"/><path d="M0 0 C6 7.71428571 6 7.71428571 6 11 C2.83884224 9.63016497 2.0072908 9.0109362 0 6 C-0.125 2.8125 -0.125 2.8125 0 0 Z " transform="translate(145,156)" style="fill: #D0C7C6;"/><path d="M0 0 C1.32 0.33 2.64 0.66 4 1 C4 3.62834278 3.80210238 6.08186701 3.5 8.6875 C3.4071875 9.49574219 3.314375 10.30398437 3.21875 11.13671875 C3.1465625 11.75160156 3.074375 12.36648437 3 13 C2.67 13 2.34 13 2 13 C1.34 8.71 0.68 4.42 0 0 Z " transform="translate(358,146)" style="fill: #272122;"/><path d="M0 0 C4.97874064 0.47416578 8.06718758 1.9099331 12 5 C12 5.66 12 6.32 12 7 C11.01 7 10.02 7 9 7 C9 6.34 9 5.68 9 5 C7.68 5 6.36 5 5 5 C3.375 3.625 3.375 3.625 2 2 C1.34 1.34 0.68 0.68 0 0 Z " transform="translate(241,269)" style="fill: #621B21;"/><path d="M0 0 C2.31 0.33 4.62 0.66 7 1 C6.360625 1.309375 5.72125 1.61875 5.0625 1.9375 C3.06389179 2.8345163 3.06389179 2.8345163 2 4 C0.31391034 4.07205511 -1.37500659 4.08386068 -3.0625 4.0625 C-3.98160156 4.05347656 -4.90070313 4.04445312 -5.84765625 4.03515625 C-6.55792969 4.02355469 -7.26820313 4.01195312 -8 4 C-8 3.67 -8 3.34 -8 3 C-5.36 3 -2.72 3 0 3 C0 2.01 0 1.02 0 0 Z " transform="translate(207,152)" style="fill: #424143;"/><path d="M0 0 C3 1 3 1 4.75 3.4375 C5.36875 4.7059375 5.36875 4.7059375 6 6 C5.67 6.66 5.34 7.32 5 8 C4.01 8 3.02 8 2 8 C0.74335022 5.09399739 0 3.20395416 0 0 Z " transform="translate(293,280)" style="fill: #281F22;"/><path d="M0 0 C3.375 0.25 3.375 0.25 7 1 C8.4375 3.0625 8.4375 3.0625 9 5 C8.01 5.495 8.01 5.495 7 6 C5.83054208 5.19152271 4.66449539 4.37810888 3.5 3.5625 C2.8503125 3.11003906 2.200625 2.65757812 1.53125 2.19140625 C1.0259375 1.79824219 0.520625 1.40507812 0 1 C0 0.67 0 0.34 0 0 Z " transform="translate(227,331)" style="fill: #2C2021;"/><path d="M0 0 C1.90318884 2.85478326 2.4619099 4.41941308 3.125 7.6875 C3.29257813 8.49574219 3.46015625 9.30398438 3.6328125 10.13671875 C3.75398437 10.75160156 3.87515625 11.36648438 4 12 C3.01 11.67 2.02 11.34 1 11 C-0.28317892 7.15046324 -0.06643637 4.05261865 0 0 Z " transform="translate(215,300)" style="fill: #440405;"/><path d="M0 0 C2.66666667 1.33333333 5.33333333 2.66666667 8 4 C6.68 4.99 5.36 5.98 4 7 C0 2.25 0 2.25 0 0 Z " transform="translate(247,289)" style="fill: #DF5258;"/><path d="M0 0 C0.66 0.66 1.32 1.32 2 2 C-0.48400602 3.24200301 -1.82207636 2.98221651 -4.5625 2.6875 C-5.36816406 2.60886719 -6.17382812 2.53023437 -7.00390625 2.44921875 C-7.99197266 2.22685547 -7.99197266 2.22685547 -9 2 C-9.33 1.34 -9.66 0.68 -10 0 C-3.42391304 -1.3451087 -3.42391304 -1.3451087 0 0 Z " transform="translate(196,180)" style="fill: #666264;"/><path d="M0 0 C-9.41002278 3.44419134 -9.41002278 3.44419134 -14 3 C-13.01 2.67 -12.02 2.34 -11 2 C-11 1.34 -11 0.68 -11 0 C-3.375 -1.125 -3.375 -1.125 0 0 Z " transform="translate(305,406)" style="fill: #24090E;"/><path d="M0 0 C2.97 0.33 5.94 0.66 9 1 C5.5647952 3.29013653 4.014669 3.17842973 0 3 C0 2.01 0 1.02 0 0 Z " transform="translate(179,192)" style="fill: #B7B2B6;"/><path d="M0 0 C0.66 0.33 1.32 0.66 2 1 C2 5.29 2 9.58 2 14 C1.67 14 1.34 14 1 14 C0.83081732 12.41693353 0.66476064 10.83353281 0.5 9.25 C0.4071875 8.36828125 0.314375 7.4865625 0.21875 6.578125 C0 4 0 4 0 0 Z " transform="translate(214,286)" style="fill: #760F15;"/><path d="M0 0 C0.33 0.99 0.66 1.98 1 3 C-5.15234375 2.4140625 -5.15234375 2.4140625 -7 2 C-7.33 1.34 -7.66 0.68 -8 0 C-5.13822943 -1.43088528 -3.06624227 -0.59991697 0 0 Z " transform="translate(202,149)" style="fill: #343334;"/><path d="M0 0 C2.6875 0.3125 2.6875 0.3125 5 1 C3.8125 2.5625 3.8125 2.5625 2 4 C-0.6875 3.6875 -0.6875 3.6875 -3 3 C-1.8125 1.4375 -1.8125 1.4375 0 0 Z " transform="translate(240,336)" style="fill: #27181C;"/><path d="M0 0 C0.99 0.33 1.98 0.66 3 1 C3.33 3.31 3.66 5.62 4 8 C0 3.375 0 3.375 0 0 Z " transform="translate(217,316)" style="fill: #252121;"/><path d="M0 0 C0 0.66 0 1.32 0 2 C-4.455 3.485 -4.455 3.485 -9 5 C-4.5 0 -4.5 0 0 0 Z " transform="translate(229,272)" style="fill: #AD222B;"/><path d="M0 0 C-0.33 0.99 -0.66 1.98 -1 3 C-3.31 3 -5.62 3 -8 3 C-8 2.34 -8 1.68 -8 1 C-5.29120665 -0.35439668 -2.99066732 -0.06501451 0 0 Z " transform="translate(197,194)" style="fill: #BAB4B7;"/><path d="M0 0 C4.02992782 0.55312735 8.02022924 1.1558062 12 2 C12 2.33 12 2.66 12 3 C10.56344146 3.08131463 9.1255517 3.13933559 7.6875 3.1875 C6.48673828 3.23970703 6.48673828 3.23970703 5.26171875 3.29296875 C2.52148416 2.93801608 1.70828921 2.10633718 0 0 Z " transform="translate(173,169)" style="fill: #413F40;"/><path d="M0 0 C0 0.66 0 1.32 0 2 C1.65 2.33 3.3 2.66 5 3 C2 5 2 5 -0.125 4.8125 C-0.74375 4.544375 -1.3625 4.27625 -2 4 C-2.33 3.01 -2.66 2.02 -3 1 C-2 0 -2 0 0 0 Z " transform="translate(150,158)" style="fill: #514F4F;"/><path d="M0 0 C2.97 0 5.94 0 9 0 C7.515 1.485 7.515 1.485 6 3 C4.02 2.34 2.04 1.68 0 1 C0 0.67 0 0.34 0 0 Z " transform="translate(252,293)" style="fill: #E26E6E;"/></svg>