<svg id="svg" version="1.1" xmlns="http://www.w3.org/2000/svg" style="display: block;" viewBox="0 0 543 488"><path d="M0 0 C179.19 0 358.38 0 543 0 C543 161.04 543 322.08 543 488 C363.81 488 184.62 488 0 488 C0 326.96 0 165.92 0 0 Z " transform="translate(0,0)" style="fill: none;"/><path d="M0 0 C0.78614685 0.00182281 1.5722937 0.00364563 2.38226318 0.00552368 C21.11677125 0.0784659 38.39103689 2.55844828 56.25 8.3125 C56.91950684 8.52745117 57.58901367 8.74240234 58.27880859 8.96386719 C74.3356787 14.25421247 89.60842808 22.35582745 103.25 32.3125 C104.30832031 33.07433594 105.36664063 33.83617187 106.45703125 34.62109375 C143.93128908 62.38963254 168.3893741 104.48459275 175.9375 150.3125 C180.01869307 178.00223805 176.64399297 205.77903542 168.25 232.3125 C168.02473633 233.02954102 167.79947266 233.74658203 167.56738281 234.48535156 C161.85656353 252.16413593 152.64108064 268.69363374 141.25 283.3125 C140.58097656 284.20324219 139.91195313 285.09398437 139.22265625 286.01171875 C125.48338445 303.65389309 108.64597915 318.25329616 89.25 329.3125 C88.61610352 329.67730469 87.98220703 330.04210937 87.32910156 330.41796875 C47.77109828 352.95660747 0.39834461 359.49999026 -43.75 348 C-52.28587359 345.63943128 -60.58489766 342.7359936 -68.75 339.3125 C-69.42740234 339.03067871 -70.10480469 338.74885742 -70.80273438 338.45849609 C-90.80459023 329.98717688 -107.93389126 317.06063999 -123.75 302.3125 C-124.48992187 301.62671875 -125.22984375 300.9409375 -125.9921875 300.234375 C-147.5154184 279.5536905 -162.92557365 250.9484057 -170.75 222.3125 C-171.11182373 221.04865479 -171.11182373 221.04865479 -171.48095703 219.75927734 C-179.29998026 191.45328082 -178.55979938 158.51801052 -170.75 130.3125 C-170.52538086 129.4889502 -170.30076172 128.66540039 -170.06933594 127.81689453 C-168.57658925 122.53144138 -166.78376446 117.41267676 -164.75 112.3125 C-164.27868652 111.12696533 -164.27868652 111.12696533 -163.79785156 109.91748047 C-146.34571044 66.94601778 -112.11224686 31.72433672 -69.44775391 13.31933594 C-60.83962173 9.80838473 -52.02664528 6.95163751 -43.0625 4.5 C-42.36398926 4.3050293 -41.66547852 4.11005859 -40.94580078 3.90917969 C-27.51480221 0.44212929 -13.78900655 -0.0667877 0 0 Z " transform="translate(263.75,60.6875)" style="fill: #FEFEFE;"/><path d="M0 0 C0.78614685 0.00182281 1.5722937 0.00364563 2.38226318 0.00552368 C21.11677125 0.0784659 38.39103689 2.55844828 56.25 8.3125 C56.91950684 8.52745117 57.58901367 8.74240234 58.27880859 8.96386719 C74.3356787 14.25421247 89.60842808 22.35582745 103.25 32.3125 C104.30832031 33.07433594 105.36664063 33.83617187 106.45703125 34.62109375 C143.93128908 62.38963254 168.3893741 104.48459275 175.9375 150.3125 C180.01869307 178.00223805 176.64399297 205.77903542 168.25 232.3125 C168.02473633 233.02954102 167.79947266 233.74658203 167.56738281 234.48535156 C161.85656353 252.16413593 152.64108064 268.69363374 141.25 283.3125 C140.58097656 284.20324219 139.91195313 285.09398437 139.22265625 286.01171875 C125.48338445 303.65389309 108.64597915 318.25329616 89.25 329.3125 C88.61610352 329.67730469 87.98220703 330.04210937 87.32910156 330.41796875 C47.77109828 352.95660747 0.39834461 359.49999026 -43.75 348 C-52.28587359 345.63943128 -60.58489766 342.7359936 -68.75 339.3125 C-69.42740234 339.03067871 -70.10480469 338.74885742 -70.80273438 338.45849609 C-90.80459023 329.98717688 -107.93389126 317.06063999 -123.75 302.3125 C-124.48992187 301.62671875 -125.22984375 300.9409375 -125.9921875 300.234375 C-147.5154184 279.5536905 -162.92557365 250.9484057 -170.75 222.3125 C-171.11182373 221.04865479 -171.11182373 221.04865479 -171.48095703 219.75927734 C-179.29998026 191.45328082 -178.55979938 158.51801052 -170.75 130.3125 C-170.52538086 129.4889502 -170.30076172 128.66540039 -170.06933594 127.81689453 C-168.57658925 122.53144138 -166.78376446 117.41267676 -164.75 112.3125 C-164.27868652 111.12696533 -164.27868652 111.12696533 -163.79785156 109.91748047 C-146.34571044 66.94601778 -112.11224686 31.72433672 -69.44775391 13.31933594 C-60.83962173 9.80838473 -52.02664528 6.95163751 -43.0625 4.5 C-42.36398926 4.3050293 -41.66547852 4.11005859 -40.94580078 3.90917969 C-27.51480221 0.44212929 -13.78900655 -0.0667877 0 0 Z M-106.75 64.3125 C-107.70777344 65.20582031 -108.66554687 66.09914062 -109.65234375 67.01953125 C-138.15781198 94.14101494 -153.48369068 133.20732362 -155.03515625 172.15625 C-155.98319461 212.28205743 -141.3103854 250.46889739 -114.75 280.3125 C-113.68468256 281.60184393 -112.6216002 282.89304421 -111.5625 284.1875 C-95.65175014 302.57025902 -70.84229616 317.20470411 -47.75 324.3125 C-46.65945312 324.64894531 -45.56890625 324.98539062 -44.4453125 325.33203125 C-2.12882698 337.48095774 40.81114656 331.04673958 79.25 310.3125 C83.45278358 307.91570327 87.39599397 305.237903 91.25 302.3125 C92.07886719 301.69117188 92.90773438 301.06984375 93.76171875 300.4296875 C122.9722604 277.77661439 143.9690974 246.68889958 151.81201172 210.31445312 C152.23181228 208.39563227 152.69504713 206.4864697 153.16015625 204.578125 C160.73282119 169.4973144 153.37192519 132.40368664 136.25 101.3125 C135.68539063 100.25804687 135.12078125 99.20359375 134.5390625 98.1171875 C114.42213445 61.94449527 79.53470984 37.52828097 40.25 26.3125 C30.37068074 23.65097469 20.50350817 21.58262535 10.25 21.3125 C9.41227051 21.28671875 8.57454102 21.2609375 7.71142578 21.234375 C-35.66933875 20.05092703 -75.08169269 34.28804376 -106.75 64.3125 Z " transform="translate(263.75,60.6875)" style="fill: #F47061;"/><path d="M0 0 C1.10794922 -0.05994141 1.10794922 -0.05994141 2.23828125 -0.12109375 C7.05154944 0.97666917 10.105829 4.61153904 12.84301758 8.49829102 C13.49939209 9.63451904 14.1557666 10.77074707 14.83203125 11.94140625 C15.38290909 12.88265854 15.38290909 12.88265854 15.94491577 13.84292603 C17.14016387 15.88952617 18.31979655 17.94469448 19.5 20 C20.7586025 22.16152038 22.02136992 24.32057396 23.28419495 26.47962952 C24.14460252 27.95145963 25.00367399 29.42407158 25.86143494 30.89744568 C30.11175375 38.19356867 34.48018705 45.41528565 38.875 52.625 C39.54442627 53.72593994 40.21385254 54.82687988 40.90356445 55.96118164 C44.89810261 62.52540969 44.89810261 62.52540969 48.95166016 69.05322266 C49.32333817 69.64847244 49.69501617 70.24372223 50.07795715 70.85700989 C51.11937451 72.52304317 52.16562962 74.18604956 53.2121582 75.84887695 C54.6875 78.4375 54.6875 78.4375 54.6875 80.4375 C57.90443815 77.47331182 60.02534972 74.47472408 62.19921875 70.6875 C62.52472717 70.12544357 62.8502356 69.56338715 63.18560791 68.98429871 C63.88739878 67.77158297 64.58650334 66.55730946 65.28317261 65.34164429 C67.15916868 62.06991175 69.05705983 58.81091069 70.953125 55.55078125 C71.53821083 54.54329582 71.53821083 54.54329582 72.13511658 53.51545715 C78.21230734 43.07055647 84.52381857 32.76630963 90.83691406 22.46289062 C92.51162954 19.72501804 94.1753254 16.98081348 95.8359375 14.234375 C96.72335968 12.78088433 97.61132443 11.32772468 98.5 9.875 C98.87825928 9.24424561 99.25651855 8.61349121 99.64624023 7.96362305 C101.62036125 4.76731894 103.37517644 2.28623873 106.6875 0.4375 C111.24885631 -0.46824338 114.73930598 -0.15512126 118.6875 2.3125 C121.95161803 5.78062541 121.81714628 7.88335419 121.83467102 12.56672668 C121.84540398 14.52892403 121.84540398 14.52892403 121.85635376 16.53076172 C121.85919416 17.98901343 121.86190587 19.44726541 121.86450195 20.90551758 C121.87076543 22.43462784 121.87741212 23.96373657 121.88441467 25.49284363 C121.90183462 29.65407993 121.91237905 33.81530473 121.9206202 37.97656846 C121.92576805 40.57536599 121.93184386 43.17415994 121.93813133 45.77295494 C121.95718583 53.90106279 121.97141665 62.02916153 121.9797433 70.15728742 C121.98951897 79.54533784 122.01584591 88.93315269 122.05624419 98.32112008 C122.08638498 105.57383451 122.10121022 112.82648133 122.10452431 120.07925719 C122.10687706 124.41274978 122.11586639 128.74599077 122.14098549 133.07941628 C122.1642359 137.15637481 122.16851186 141.23291557 122.15822411 145.30992317 C122.1577279 146.80590452 122.16407344 148.30190622 122.17778015 149.79782486 C122.1954523 151.84091445 122.18602288 153.88418479 122.17524719 155.92732239 C122.17763555 157.07051343 122.1800239 158.21370447 122.18248463 159.39153767 C121.57870763 163.10697023 120.28484658 164.76438749 117.6875 167.4375 C114.22499757 169.16875121 110.47341771 168.91565224 106.6875 168.4375 C103.07136988 166.28320972 101.28012434 164.27938327 99.6875 160.4375 C99.42578697 158.27425003 99.42578697 158.27425003 99.4090271 155.89434814 C99.39786362 154.988535 99.38670013 154.08272186 99.37519836 153.14945984 C99.37303818 152.16331192 99.37087799 151.177164 99.36865234 150.16113281 C99.35860672 149.11691666 99.3485611 148.0727005 99.33821106 146.99684143 C99.30731622 143.54477489 99.29032622 140.09278614 99.2734375 136.640625 C99.25473094 134.24736865 99.23515792 131.85411893 99.2147522 129.46087646 C99.16337099 123.16119287 99.12377721 116.86148789 99.08660889 110.56170654 C99.04660685 104.1335315 98.99549717 97.70544593 98.9453125 91.27734375 C98.84848225 78.66412643 98.76372297 66.05085782 98.6875 53.4375 C96.12457094 57.75326891 93.56173494 62.06909307 90.99897766 66.38496399 C90.13085825 67.84691283 89.26271533 69.30884771 88.39454651 70.77076721 C79.25495921 86.15347588 79.25495921 86.15347588 70.14726257 101.55506897 C67.00049843 106.84734675 63.78684906 112.24401863 57.52734375 114.06640625 C52.48921386 113.89053724 50.29370259 112.84351382 46.6875 109.4375 C45.19331184 107.27959959 43.86442618 105.19461543 42.5703125 102.92578125 C42.19123749 102.28045944 41.81216248 101.63513763 41.42160034 100.97026062 C40.20925498 98.90211566 39.01045633 96.82650622 37.8125 94.75 C36.65607444 92.76527727 35.49679144 90.78224291 34.33734131 88.79928589 C33.5284049 87.41515819 32.72068244 86.03032037 31.91412354 84.64480591 C25.6152454 73.84419224 19.13642606 63.14889839 12.6875 52.4375 C12.68511165 52.98949412 12.68272329 53.54148825 12.68026257 54.11020947 C12.62109991 67.54786256 12.5453533 80.9853343 12.45178509 94.42279339 C12.40703698 100.92109121 12.36779046 107.41932569 12.34106445 113.91772461 C12.31507607 120.18776658 12.27470489 126.45756536 12.22431374 132.72745705 C12.20761487 135.1208373 12.19611945 137.51425965 12.18988609 139.90769005 C12.1802781 143.25732356 12.15225728 146.60633065 12.11987305 149.95581055 C12.12130814 150.94771393 12.12274323 151.93961731 12.1242218 152.96157837 C12.0403437 159.08680198 11.23900974 162.59158529 7.0625 167.25 C3.3290345 169.11673275 -0.23389102 169.229957 -4.3125 168.4375 C-7.59425318 165.90781526 -9.00493777 164.36018669 -10.3125 160.4375 C-10.41034847 158.39410917 -10.44750377 156.34763541 -10.45294189 154.3019104 C-10.46150711 152.37551476 -10.46150711 152.37551476 -10.47024536 150.41020203 C-10.4714907 148.98391733 -10.4726158 147.55763253 -10.47363281 146.13134766 C-10.47826131 144.6316465 -10.48328601 143.13194653 -10.48867798 141.63224792 C-10.5018 137.55577403 -10.50824642 133.4793166 -10.51268864 129.40282488 C-10.51561937 126.85645227 -10.51972416 124.31008417 -10.52419281 121.76371384 C-10.53786654 113.79792318 -10.54753409 105.83214281 -10.5513947 97.86634123 C-10.55587684 88.66851419 -10.57343244 79.47083565 -10.6023953 70.27305377 C-10.62400257 63.16469061 -10.63409845 56.05636926 -10.63543582 48.94797361 C-10.63648443 44.70173458 -10.64240428 40.45563517 -10.66025543 36.20943069 C-10.67671991 32.21540583 -10.67889961 28.2216258 -10.67011642 24.22757912 C-10.6693452 22.76224296 -10.6737 21.29689374 -10.68357468 19.83159065 C-10.69627094 17.83011931 -10.68863411 15.82854984 -10.67999268 13.82705688 C-10.68145924 12.70728769 -10.6829258 11.5875185 -10.6844368 10.43381691 C-10.26079924 7.0209995 -9.36190193 5.17776437 -7.3125 2.4375 C-4.3041623 0.43194153 -3.43541351 0.10086706 0 0 Z " transform="translate(208.3125,152.5625)" style="fill: #F47061;"/></svg>